%TF.GenerationSoftware,KiCad,Pcbnew,10.0.3*%
%TF.CreationDate,2026-05-23T18:56:48+02:00*%
%TF.ProjectId,220526_VCO_V2,32323035-3236-45f5-9643-4f5f56322e6b,rev?*%
%TF.SameCoordinates,Original*%
%TF.FileFunction,Soldermask,Top*%
%TF.FilePolarity,Negative*%
%FSLAX46Y46*%
G04 Gerber Fmt 4.6, Leading zero omitted, Abs format (unit mm)*
G04 Created by KiCad (PCBNEW 10.0.3) date 2026-05-23 18:56:48*
%MOMM*%
%LPD*%
G01*
G04 APERTURE LIST*
G04 Aperture macros list*
%AMRoundRect*
0 Rectangle with rounded corners*
0 $1 Rounding radius*
0 $2 $3 $4 $5 $6 $7 $8 $9 X,Y pos of 4 corners*
0 Add a 4 corners polygon primitive as box body*
4,1,4,$2,$3,$4,$5,$6,$7,$8,$9,$2,$3,0*
0 Add four circle primitives for the rounded corners*
1,1,$1+$1,$2,$3*
1,1,$1+$1,$4,$5*
1,1,$1+$1,$6,$7*
1,1,$1+$1,$8,$9*
0 Add four rect primitives between the rounded corners*
20,1,$1+$1,$2,$3,$4,$5,0*
20,1,$1+$1,$4,$5,$6,$7,0*
20,1,$1+$1,$6,$7,$8,$9,0*
20,1,$1+$1,$8,$9,$2,$3,0*%
G04 Aperture macros list end*
%ADD10C,1.600000*%
%ADD11RoundRect,0.249999X0.850001X-0.850001X0.850001X0.850001X-0.850001X0.850001X-0.850001X-0.850001X0*%
%ADD12C,2.200000*%
%ADD13C,2.340000*%
%ADD14RoundRect,0.190500X0.444500X-1.079500X0.444500X1.079500X-0.444500X1.079500X-0.444500X-1.079500X0*%
%ADD15RoundRect,0.550000X0.550000X-0.700000X0.550000X0.700000X-0.550000X0.700000X-0.550000X-0.700000X0*%
%ADD16C,3.200000*%
%ADD17C,1.500000*%
%ADD18C,1.400000*%
%ADD19RoundRect,0.190500X-1.079500X-0.444500X1.079500X-0.444500X1.079500X0.444500X-1.079500X0.444500X0*%
%ADD20RoundRect,0.550000X-0.700000X-0.550000X0.700000X-0.550000X0.700000X0.550000X-0.700000X0.550000X0*%
%ADD21RoundRect,0.250000X-1.000000X-1.000000X1.000000X-1.000000X1.000000X1.000000X-1.000000X1.000000X0*%
%ADD22C,2.500000*%
%ADD23R,1.050000X1.500000*%
%ADD24O,1.050000X1.500000*%
%ADD25C,1.440000*%
%ADD26RoundRect,0.250000X-0.550000X0.550000X-0.550000X-0.550000X0.550000X-0.550000X0.550000X0.550000X0*%
%ADD27R,1.800000X1.800000*%
%ADD28C,1.800000*%
%ADD29RoundRect,0.250000X-0.550000X-0.550000X0.550000X-0.550000X0.550000X0.550000X-0.550000X0.550000X0*%
%ADD30RoundRect,0.249999X-0.850001X0.850001X-0.850001X-0.850001X0.850001X-0.850001X0.850001X0.850001X0*%
%ADD31C,2.000000*%
G04 APERTURE END LIST*
D10*
%TO.C,R11*%
X181922562Y-53072385D03*
X171762562Y-53072385D03*
%TD*%
%TO.C,R13*%
X135000000Y-83160000D03*
X135000000Y-73000000D03*
%TD*%
D11*
%TO.C,D2*%
X125000000Y-37660000D03*
D12*
X125000000Y-27500000D03*
%TD*%
D13*
%TO.C,FINE1*%
X154860000Y-89000000D03*
X149860000Y-89000000D03*
X144860000Y-89000000D03*
%TD*%
D10*
%TO.C,R15*%
X185842562Y-46292385D03*
X185842562Y-56452385D03*
%TD*%
D14*
%TO.C,CV_IN1*%
X227600000Y-50350000D03*
D15*
X227600000Y-50600000D03*
X227600000Y-60000000D03*
X223800000Y-50600000D03*
X223800000Y-60000000D03*
%TD*%
D10*
%TO.C,R5*%
X135682562Y-55072385D03*
X145842562Y-55072385D03*
%TD*%
D16*
%TO.C,REF\u002A\u002A*%
X130251771Y-52915518D03*
%TD*%
D17*
%TO.C,C2*%
X160942562Y-32372385D03*
X160942562Y-37372385D03*
%TD*%
D10*
%TO.C,R20*%
X125000000Y-41000000D03*
X125000000Y-51160000D03*
%TD*%
D18*
%TO.C,TH3*%
X158617915Y-45226613D03*
X158617915Y-40146613D03*
%TD*%
D19*
%TO.C,PWM_IN1*%
X179050000Y-100600000D03*
D20*
X178800000Y-100600000D03*
X169400000Y-100600000D03*
X178800000Y-96800000D03*
X169400000Y-96800000D03*
%TD*%
D10*
%TO.C,C8*%
X119500000Y-49500000D03*
X114500000Y-49500000D03*
%TD*%
%TO.C,R7*%
X109000000Y-78920000D03*
X109000000Y-89080000D03*
%TD*%
%TO.C,R3*%
X214880000Y-77300000D03*
X204720000Y-77300000D03*
%TD*%
D19*
%TO.C,PULSE_OUT1*%
X154750000Y-100715000D03*
D20*
X154500000Y-100715000D03*
X145100000Y-100715000D03*
X154500000Y-96915000D03*
X145100000Y-96915000D03*
%TD*%
D10*
%TO.C,R21*%
X108500000Y-54420000D03*
X108500000Y-64580000D03*
%TD*%
D21*
%TO.C,J1*%
X108420000Y-31500000D03*
D22*
X113500000Y-31500000D03*
X118580000Y-31500000D03*
%TD*%
D10*
%TO.C,C3*%
X148142562Y-32072385D03*
X148142562Y-37072385D03*
%TD*%
%TO.C,R2*%
X214800000Y-69300000D03*
X204640000Y-69300000D03*
%TD*%
%TO.C,R12*%
X168502562Y-58072385D03*
X158342562Y-58072385D03*
%TD*%
D23*
%TO.C,Q2*%
X153402562Y-46312385D03*
D24*
X154672562Y-46312385D03*
X155942562Y-46312385D03*
%TD*%
D25*
%TO.C,ADJ_TUNE1*%
X165460000Y-65530000D03*
X168000000Y-62990000D03*
X170540000Y-65530000D03*
%TD*%
D10*
%TO.C,R17*%
X189240000Y-90235000D03*
X189240000Y-100395000D03*
%TD*%
D26*
%TO.C,D1*%
X132142562Y-28462385D03*
D10*
X132142562Y-36082385D03*
%TD*%
%TO.C,C6*%
X121000000Y-42000000D03*
X119000000Y-42000000D03*
%TD*%
D19*
%TO.C,SAW_OUT1*%
X126890000Y-100715000D03*
D20*
X126640000Y-100715000D03*
X117240000Y-100715000D03*
X126640000Y-96915000D03*
X117240000Y-96915000D03*
%TD*%
D16*
%TO.C,REF\u002A\u002A*%
X225000000Y-32500000D03*
%TD*%
D10*
%TO.C,R4*%
X214960000Y-41600000D03*
X204800000Y-41600000D03*
%TD*%
%TO.C,R10*%
X185742562Y-29872385D03*
X185742562Y-40032385D03*
%TD*%
D27*
%TO.C,D4*%
X198075000Y-30650000D03*
D28*
X200615000Y-30650000D03*
%TD*%
D29*
%TO.C,U2*%
X165342562Y-32992385D03*
D10*
X165342562Y-35532385D03*
X165342562Y-38072385D03*
X165342562Y-40612385D03*
X165342562Y-43152385D03*
X165342562Y-45692385D03*
X165342562Y-48232385D03*
X172962562Y-48232385D03*
X172962562Y-45692385D03*
X172962562Y-43152385D03*
X172962562Y-40612385D03*
X172962562Y-38072385D03*
X172962562Y-35532385D03*
X172962562Y-32992385D03*
%TD*%
D29*
%TO.C,U1*%
X136722562Y-32872385D03*
D10*
X136722562Y-35412385D03*
X136722562Y-37952385D03*
X136722562Y-40492385D03*
X136722562Y-43032385D03*
X136722562Y-45572385D03*
X136722562Y-48112385D03*
X144342562Y-48112385D03*
X144342562Y-45572385D03*
X144342562Y-43032385D03*
X144342562Y-40492385D03*
X144342562Y-37952385D03*
X144342562Y-35412385D03*
X144342562Y-32872385D03*
%TD*%
%TO.C,C9*%
X114500000Y-57000000D03*
X119500000Y-57000000D03*
%TD*%
%TO.C,R16*%
X160860000Y-98080000D03*
X160860000Y-87920000D03*
%TD*%
D23*
%TO.C,Q1*%
X155942562Y-50512385D03*
D24*
X154672562Y-50512385D03*
X153402562Y-50512385D03*
%TD*%
D14*
%TO.C,FM_IN1*%
X227600000Y-81550000D03*
D15*
X227600000Y-81800000D03*
X227600000Y-91200000D03*
X223800000Y-81800000D03*
X223800000Y-91200000D03*
%TD*%
D13*
%TO.C,PWM_CV_LVL1*%
X214715000Y-84300000D03*
X214715000Y-89300000D03*
X214715000Y-94300000D03*
%TD*%
D10*
%TO.C,C7*%
X115000000Y-42000000D03*
X113000000Y-42000000D03*
%TD*%
D30*
%TO.C,D3*%
X108500000Y-40420000D03*
D12*
X108500000Y-50580000D03*
%TD*%
D10*
%TO.C,R8*%
X135000000Y-69160000D03*
X135000000Y-59000000D03*
%TD*%
D13*
%TO.C,FM_LVL1*%
X214715000Y-50300000D03*
X214715000Y-55300000D03*
X214715000Y-60300000D03*
%TD*%
D16*
%TO.C,REF\u002A\u002A*%
X223700000Y-98400000D03*
%TD*%
D10*
%TO.C,C5*%
X154842562Y-32072385D03*
X154842562Y-37072385D03*
%TD*%
D31*
%TO.C,C1*%
X136142562Y-28272385D03*
X146142562Y-28272385D03*
%TD*%
D10*
%TO.C,R1*%
X149182562Y-29072385D03*
X159342562Y-29072385D03*
%TD*%
D18*
%TO.C,TH4*%
X150717925Y-45261671D03*
X150717925Y-40181671D03*
%TD*%
D16*
%TO.C,REF\u002A\u002A*%
X110100000Y-98300000D03*
%TD*%
D18*
%TO.C,TH2*%
X158642562Y-52343809D03*
X158642562Y-47263809D03*
%TD*%
%TO.C,TH1*%
X150717925Y-47262613D03*
X150717925Y-52342613D03*
%TD*%
D10*
%TO.C,R6*%
X115704000Y-64600000D03*
X125864000Y-64600000D03*
%TD*%
D13*
%TO.C,PWM1*%
X179660000Y-88800000D03*
X174660000Y-88800000D03*
X169660000Y-88800000D03*
%TD*%
D10*
%TO.C,R9*%
X134840000Y-96520000D03*
X134840000Y-86360000D03*
%TD*%
%TO.C,R14*%
X186042562Y-43172385D03*
X175882562Y-43172385D03*
%TD*%
%TO.C,R22*%
X190490000Y-38050000D03*
X200650000Y-38050000D03*
%TD*%
D13*
%TO.C,COARSE1*%
X127000000Y-89000000D03*
X122000000Y-89000000D03*
X117000000Y-89000000D03*
%TD*%
D10*
%TO.C,R18*%
X185860000Y-60000000D03*
X175700000Y-60000000D03*
%TD*%
%TO.C,C4*%
X180842562Y-38172385D03*
X175842562Y-38172385D03*
%TD*%
%TO.C,R19*%
X189300000Y-87580000D03*
X189300000Y-77420000D03*
%TD*%
M02*
