%TF.GenerationSoftware,KiCad,Pcbnew,10.0.3*%
%TF.CreationDate,2026-05-23T19:00:03+02:00*%
%TF.ProjectId,220526_VCO_V2,32323035-3236-45f5-9643-4f5f56322e6b,rev?*%
%TF.SameCoordinates,Original*%
%TF.FileFunction,Legend,Top*%
%TF.FilePolarity,Positive*%
%FSLAX46Y46*%
G04 Gerber Fmt 4.6, Leading zero omitted, Abs format (unit mm)*
G04 Created by KiCad (PCBNEW 10.0.3) date 2026-05-23 19:00:03*
%MOMM*%
%LPD*%
G01*
G04 APERTURE LIST*
%ADD10C,0.000000*%
%ADD11C,0.200000*%
%ADD12C,0.150000*%
%ADD13C,0.120000*%
G04 APERTURE END LIST*
D10*
G36*
X137500000Y-101000000D02*
G01*
X141257083Y-98499688D01*
X141415833Y-98711355D01*
X137235417Y-101502709D01*
X137235417Y-98856876D01*
X133266667Y-101502709D01*
X133266667Y-98856876D01*
X129509584Y-101357188D01*
X129350834Y-101145521D01*
X133531251Y-98354167D01*
X133531251Y-101000000D01*
X137500000Y-98354167D01*
X137500000Y-101000000D01*
G37*
G36*
X158950000Y-101650000D02*
G01*
X159981874Y-101650000D01*
X159981874Y-100062500D01*
X161331250Y-100062500D01*
X161331250Y-101650000D01*
X162363124Y-101650000D01*
X162363124Y-100062500D01*
X163712500Y-100062500D01*
X163712500Y-101650000D01*
X164823750Y-101650000D01*
X164823750Y-101808750D01*
X163553749Y-101808750D01*
X163553749Y-100221250D01*
X162521875Y-100221250D01*
X162521875Y-101808750D01*
X161172499Y-101808750D01*
X161172499Y-100221250D01*
X160140625Y-100221250D01*
X160140625Y-101808750D01*
X158791250Y-101808750D01*
X158791250Y-100221250D01*
X157680000Y-100221250D01*
X157680000Y-100062500D01*
X158950000Y-100062500D01*
X158950000Y-101650000D01*
G37*
D11*
X176328276Y-55894604D02*
X176061609Y-55418413D01*
X175871133Y-55894604D02*
X175871133Y-54894604D01*
X175871133Y-54894604D02*
X176175895Y-54894604D01*
X176175895Y-54894604D02*
X176252085Y-54942223D01*
X176252085Y-54942223D02*
X176290180Y-54989842D01*
X176290180Y-54989842D02*
X176328276Y-55085080D01*
X176328276Y-55085080D02*
X176328276Y-55227937D01*
X176328276Y-55227937D02*
X176290180Y-55323175D01*
X176290180Y-55323175D02*
X176252085Y-55370794D01*
X176252085Y-55370794D02*
X176175895Y-55418413D01*
X176175895Y-55418413D02*
X175871133Y-55418413D01*
X177090180Y-55894604D02*
X176633037Y-55894604D01*
X176861609Y-55894604D02*
X176861609Y-54894604D01*
X176861609Y-54894604D02*
X176785418Y-55037461D01*
X176785418Y-55037461D02*
X176709228Y-55132699D01*
X176709228Y-55132699D02*
X176633037Y-55180318D01*
X177852085Y-55894604D02*
X177394942Y-55894604D01*
X177623514Y-55894604D02*
X177623514Y-54894604D01*
X177623514Y-54894604D02*
X177547323Y-55037461D01*
X177547323Y-55037461D02*
X177471133Y-55132699D01*
X177471133Y-55132699D02*
X177394942Y-55180318D01*
X139502219Y-78664285D02*
X139026028Y-78930952D01*
X139502219Y-79121428D02*
X138502219Y-79121428D01*
X138502219Y-79121428D02*
X138502219Y-78816666D01*
X138502219Y-78816666D02*
X138549838Y-78740476D01*
X138549838Y-78740476D02*
X138597457Y-78702381D01*
X138597457Y-78702381D02*
X138692695Y-78664285D01*
X138692695Y-78664285D02*
X138835552Y-78664285D01*
X138835552Y-78664285D02*
X138930790Y-78702381D01*
X138930790Y-78702381D02*
X138978409Y-78740476D01*
X138978409Y-78740476D02*
X139026028Y-78816666D01*
X139026028Y-78816666D02*
X139026028Y-79121428D01*
X139502219Y-77902381D02*
X139502219Y-78359524D01*
X139502219Y-78130952D02*
X138502219Y-78130952D01*
X138502219Y-78130952D02*
X138645076Y-78207143D01*
X138645076Y-78207143D02*
X138740314Y-78283333D01*
X138740314Y-78283333D02*
X138787933Y-78359524D01*
X138502219Y-77635714D02*
X138502219Y-77140476D01*
X138502219Y-77140476D02*
X138883171Y-77407142D01*
X138883171Y-77407142D02*
X138883171Y-77292857D01*
X138883171Y-77292857D02*
X138930790Y-77216666D01*
X138930790Y-77216666D02*
X138978409Y-77178571D01*
X138978409Y-77178571D02*
X139073647Y-77140476D01*
X139073647Y-77140476D02*
X139311742Y-77140476D01*
X139311742Y-77140476D02*
X139406980Y-77178571D01*
X139406980Y-77178571D02*
X139454600Y-77216666D01*
X139454600Y-77216666D02*
X139502219Y-77292857D01*
X139502219Y-77292857D02*
X139502219Y-77521428D01*
X139502219Y-77521428D02*
X139454600Y-77597619D01*
X139454600Y-77597619D02*
X139406980Y-77635714D01*
X122982219Y-33170475D02*
X121982219Y-33170475D01*
X121982219Y-33170475D02*
X121982219Y-32979999D01*
X121982219Y-32979999D02*
X122029838Y-32865713D01*
X122029838Y-32865713D02*
X122125076Y-32789523D01*
X122125076Y-32789523D02*
X122220314Y-32751428D01*
X122220314Y-32751428D02*
X122410790Y-32713332D01*
X122410790Y-32713332D02*
X122553647Y-32713332D01*
X122553647Y-32713332D02*
X122744123Y-32751428D01*
X122744123Y-32751428D02*
X122839361Y-32789523D01*
X122839361Y-32789523D02*
X122934600Y-32865713D01*
X122934600Y-32865713D02*
X122982219Y-32979999D01*
X122982219Y-32979999D02*
X122982219Y-33170475D01*
X122077457Y-32408571D02*
X122029838Y-32370475D01*
X122029838Y-32370475D02*
X121982219Y-32294285D01*
X121982219Y-32294285D02*
X121982219Y-32103809D01*
X121982219Y-32103809D02*
X122029838Y-32027618D01*
X122029838Y-32027618D02*
X122077457Y-31989523D01*
X122077457Y-31989523D02*
X122172695Y-31951428D01*
X122172695Y-31951428D02*
X122267933Y-31951428D01*
X122267933Y-31951428D02*
X122410790Y-31989523D01*
X122410790Y-31989523D02*
X122982219Y-32446666D01*
X122982219Y-32446666D02*
X122982219Y-31951428D01*
X123352219Y-37869523D02*
X122352219Y-37869523D01*
X123352219Y-37412380D02*
X122780790Y-37755238D01*
X122352219Y-37412380D02*
X122923647Y-37869523D01*
X148761904Y-66078409D02*
X148495238Y-66078409D01*
X148495238Y-66602219D02*
X148495238Y-65602219D01*
X148495238Y-65602219D02*
X148876190Y-65602219D01*
X149180952Y-66602219D02*
X149180952Y-65602219D01*
X149561904Y-66602219D02*
X149561904Y-65602219D01*
X149561904Y-65602219D02*
X150019047Y-66602219D01*
X150019047Y-66602219D02*
X150019047Y-65602219D01*
X150399999Y-66078409D02*
X150666665Y-66078409D01*
X150780951Y-66602219D02*
X150399999Y-66602219D01*
X150399999Y-66602219D02*
X150399999Y-65602219D01*
X150399999Y-65602219D02*
X150780951Y-65602219D01*
X151542856Y-66602219D02*
X151085713Y-66602219D01*
X151314285Y-66602219D02*
X151314285Y-65602219D01*
X151314285Y-65602219D02*
X151238094Y-65745076D01*
X151238094Y-65745076D02*
X151161904Y-65840314D01*
X151161904Y-65840314D02*
X151085713Y-65887933D01*
X188664781Y-51886670D02*
X188188590Y-52153337D01*
X188664781Y-52343813D02*
X187664781Y-52343813D01*
X187664781Y-52343813D02*
X187664781Y-52039051D01*
X187664781Y-52039051D02*
X187712400Y-51962861D01*
X187712400Y-51962861D02*
X187760019Y-51924766D01*
X187760019Y-51924766D02*
X187855257Y-51886670D01*
X187855257Y-51886670D02*
X187998114Y-51886670D01*
X187998114Y-51886670D02*
X188093352Y-51924766D01*
X188093352Y-51924766D02*
X188140971Y-51962861D01*
X188140971Y-51962861D02*
X188188590Y-52039051D01*
X188188590Y-52039051D02*
X188188590Y-52343813D01*
X188664781Y-51124766D02*
X188664781Y-51581909D01*
X188664781Y-51353337D02*
X187664781Y-51353337D01*
X187664781Y-51353337D02*
X187807638Y-51429528D01*
X187807638Y-51429528D02*
X187902876Y-51505718D01*
X187902876Y-51505718D02*
X187950495Y-51581909D01*
X187664781Y-50400956D02*
X187664781Y-50781908D01*
X187664781Y-50781908D02*
X188140971Y-50820004D01*
X188140971Y-50820004D02*
X188093352Y-50781908D01*
X188093352Y-50781908D02*
X188045733Y-50705718D01*
X188045733Y-50705718D02*
X188045733Y-50515242D01*
X188045733Y-50515242D02*
X188093352Y-50439051D01*
X188093352Y-50439051D02*
X188140971Y-50400956D01*
X188140971Y-50400956D02*
X188236209Y-50362861D01*
X188236209Y-50362861D02*
X188474304Y-50362861D01*
X188474304Y-50362861D02*
X188569542Y-50400956D01*
X188569542Y-50400956D02*
X188617162Y-50439051D01*
X188617162Y-50439051D02*
X188664781Y-50515242D01*
X188664781Y-50515242D02*
X188664781Y-50705718D01*
X188664781Y-50705718D02*
X188617162Y-50781908D01*
X188617162Y-50781908D02*
X188569542Y-50820004D01*
X219156980Y-56590475D02*
X219204600Y-56628571D01*
X219204600Y-56628571D02*
X219252219Y-56742856D01*
X219252219Y-56742856D02*
X219252219Y-56819047D01*
X219252219Y-56819047D02*
X219204600Y-56933333D01*
X219204600Y-56933333D02*
X219109361Y-57009523D01*
X219109361Y-57009523D02*
X219014123Y-57047618D01*
X219014123Y-57047618D02*
X218823647Y-57085714D01*
X218823647Y-57085714D02*
X218680790Y-57085714D01*
X218680790Y-57085714D02*
X218490314Y-57047618D01*
X218490314Y-57047618D02*
X218395076Y-57009523D01*
X218395076Y-57009523D02*
X218299838Y-56933333D01*
X218299838Y-56933333D02*
X218252219Y-56819047D01*
X218252219Y-56819047D02*
X218252219Y-56742856D01*
X218252219Y-56742856D02*
X218299838Y-56628571D01*
X218299838Y-56628571D02*
X218347457Y-56590475D01*
X218252219Y-56361904D02*
X219252219Y-56095237D01*
X219252219Y-56095237D02*
X218252219Y-55828571D01*
X219347457Y-55752381D02*
X219347457Y-55142857D01*
X219252219Y-54952380D02*
X218252219Y-54952380D01*
X219252219Y-54571428D02*
X218252219Y-54571428D01*
X218252219Y-54571428D02*
X219252219Y-54114285D01*
X219252219Y-54114285D02*
X218252219Y-54114285D01*
X219252219Y-53314286D02*
X219252219Y-53771429D01*
X219252219Y-53542857D02*
X218252219Y-53542857D01*
X218252219Y-53542857D02*
X218395076Y-53619048D01*
X218395076Y-53619048D02*
X218490314Y-53695238D01*
X218490314Y-53695238D02*
X218537933Y-53771429D01*
X140629229Y-53154604D02*
X140362562Y-52678413D01*
X140172086Y-53154604D02*
X140172086Y-52154604D01*
X140172086Y-52154604D02*
X140476848Y-52154604D01*
X140476848Y-52154604D02*
X140553038Y-52202223D01*
X140553038Y-52202223D02*
X140591133Y-52249842D01*
X140591133Y-52249842D02*
X140629229Y-52345080D01*
X140629229Y-52345080D02*
X140629229Y-52487937D01*
X140629229Y-52487937D02*
X140591133Y-52583175D01*
X140591133Y-52583175D02*
X140553038Y-52630794D01*
X140553038Y-52630794D02*
X140476848Y-52678413D01*
X140476848Y-52678413D02*
X140172086Y-52678413D01*
X141353038Y-52154604D02*
X140972086Y-52154604D01*
X140972086Y-52154604D02*
X140933990Y-52630794D01*
X140933990Y-52630794D02*
X140972086Y-52583175D01*
X140972086Y-52583175D02*
X141048276Y-52535556D01*
X141048276Y-52535556D02*
X141238752Y-52535556D01*
X141238752Y-52535556D02*
X141314943Y-52583175D01*
X141314943Y-52583175D02*
X141353038Y-52630794D01*
X141353038Y-52630794D02*
X141391133Y-52726032D01*
X141391133Y-52726032D02*
X141391133Y-52964127D01*
X141391133Y-52964127D02*
X141353038Y-53059365D01*
X141353038Y-53059365D02*
X141314943Y-53106985D01*
X141314943Y-53106985D02*
X141238752Y-53154604D01*
X141238752Y-53154604D02*
X141048276Y-53154604D01*
X141048276Y-53154604D02*
X140972086Y-53106985D01*
X140972086Y-53106985D02*
X140933990Y-53059365D01*
X161499542Y-30205717D02*
X161547162Y-30243813D01*
X161547162Y-30243813D02*
X161594781Y-30358098D01*
X161594781Y-30358098D02*
X161594781Y-30434289D01*
X161594781Y-30434289D02*
X161547162Y-30548575D01*
X161547162Y-30548575D02*
X161451923Y-30624765D01*
X161451923Y-30624765D02*
X161356685Y-30662860D01*
X161356685Y-30662860D02*
X161166209Y-30700956D01*
X161166209Y-30700956D02*
X161023352Y-30700956D01*
X161023352Y-30700956D02*
X160832876Y-30662860D01*
X160832876Y-30662860D02*
X160737638Y-30624765D01*
X160737638Y-30624765D02*
X160642400Y-30548575D01*
X160642400Y-30548575D02*
X160594781Y-30434289D01*
X160594781Y-30434289D02*
X160594781Y-30358098D01*
X160594781Y-30358098D02*
X160642400Y-30243813D01*
X160642400Y-30243813D02*
X160690019Y-30205717D01*
X160690019Y-29900956D02*
X160642400Y-29862860D01*
X160642400Y-29862860D02*
X160594781Y-29786670D01*
X160594781Y-29786670D02*
X160594781Y-29596194D01*
X160594781Y-29596194D02*
X160642400Y-29520003D01*
X160642400Y-29520003D02*
X160690019Y-29481908D01*
X160690019Y-29481908D02*
X160785257Y-29443813D01*
X160785257Y-29443813D02*
X160880495Y-29443813D01*
X160880495Y-29443813D02*
X161023352Y-29481908D01*
X161023352Y-29481908D02*
X161594781Y-29939051D01*
X161594781Y-29939051D02*
X161594781Y-29443813D01*
X127822219Y-46594285D02*
X127346028Y-46860952D01*
X127822219Y-47051428D02*
X126822219Y-47051428D01*
X126822219Y-47051428D02*
X126822219Y-46746666D01*
X126822219Y-46746666D02*
X126869838Y-46670476D01*
X126869838Y-46670476D02*
X126917457Y-46632381D01*
X126917457Y-46632381D02*
X127012695Y-46594285D01*
X127012695Y-46594285D02*
X127155552Y-46594285D01*
X127155552Y-46594285D02*
X127250790Y-46632381D01*
X127250790Y-46632381D02*
X127298409Y-46670476D01*
X127298409Y-46670476D02*
X127346028Y-46746666D01*
X127346028Y-46746666D02*
X127346028Y-47051428D01*
X126917457Y-46289524D02*
X126869838Y-46251428D01*
X126869838Y-46251428D02*
X126822219Y-46175238D01*
X126822219Y-46175238D02*
X126822219Y-45984762D01*
X126822219Y-45984762D02*
X126869838Y-45908571D01*
X126869838Y-45908571D02*
X126917457Y-45870476D01*
X126917457Y-45870476D02*
X127012695Y-45832381D01*
X127012695Y-45832381D02*
X127107933Y-45832381D01*
X127107933Y-45832381D02*
X127250790Y-45870476D01*
X127250790Y-45870476D02*
X127822219Y-46327619D01*
X127822219Y-46327619D02*
X127822219Y-45832381D01*
X126822219Y-45337142D02*
X126822219Y-45260952D01*
X126822219Y-45260952D02*
X126869838Y-45184761D01*
X126869838Y-45184761D02*
X126917457Y-45146666D01*
X126917457Y-45146666D02*
X127012695Y-45108571D01*
X127012695Y-45108571D02*
X127203171Y-45070476D01*
X127203171Y-45070476D02*
X127441266Y-45070476D01*
X127441266Y-45070476D02*
X127631742Y-45108571D01*
X127631742Y-45108571D02*
X127726980Y-45146666D01*
X127726980Y-45146666D02*
X127774600Y-45184761D01*
X127774600Y-45184761D02*
X127822219Y-45260952D01*
X127822219Y-45260952D02*
X127822219Y-45337142D01*
X127822219Y-45337142D02*
X127774600Y-45413333D01*
X127774600Y-45413333D02*
X127726980Y-45451428D01*
X127726980Y-45451428D02*
X127631742Y-45489523D01*
X127631742Y-45489523D02*
X127441266Y-45527619D01*
X127441266Y-45527619D02*
X127203171Y-45527619D01*
X127203171Y-45527619D02*
X127012695Y-45489523D01*
X127012695Y-45489523D02*
X126917457Y-45451428D01*
X126917457Y-45451428D02*
X126869838Y-45413333D01*
X126869838Y-45413333D02*
X126822219Y-45337142D01*
X161370134Y-43775184D02*
X161370134Y-43318041D01*
X162370134Y-43546613D02*
X161370134Y-43546613D01*
X162370134Y-43051374D02*
X161370134Y-43051374D01*
X161846324Y-43051374D02*
X161846324Y-42594231D01*
X162370134Y-42594231D02*
X161370134Y-42594231D01*
X161370134Y-42289470D02*
X161370134Y-41794232D01*
X161370134Y-41794232D02*
X161751086Y-42060898D01*
X161751086Y-42060898D02*
X161751086Y-41946613D01*
X161751086Y-41946613D02*
X161798705Y-41870422D01*
X161798705Y-41870422D02*
X161846324Y-41832327D01*
X161846324Y-41832327D02*
X161941562Y-41794232D01*
X161941562Y-41794232D02*
X162179657Y-41794232D01*
X162179657Y-41794232D02*
X162274895Y-41832327D01*
X162274895Y-41832327D02*
X162322515Y-41870422D01*
X162322515Y-41870422D02*
X162370134Y-41946613D01*
X162370134Y-41946613D02*
X162370134Y-42175184D01*
X162370134Y-42175184D02*
X162322515Y-42251375D01*
X162322515Y-42251375D02*
X162274895Y-42289470D01*
X171730952Y-92702219D02*
X171730952Y-91702219D01*
X171730952Y-91702219D02*
X172035714Y-91702219D01*
X172035714Y-91702219D02*
X172111904Y-91749838D01*
X172111904Y-91749838D02*
X172149999Y-91797457D01*
X172149999Y-91797457D02*
X172188095Y-91892695D01*
X172188095Y-91892695D02*
X172188095Y-92035552D01*
X172188095Y-92035552D02*
X172149999Y-92130790D01*
X172149999Y-92130790D02*
X172111904Y-92178409D01*
X172111904Y-92178409D02*
X172035714Y-92226028D01*
X172035714Y-92226028D02*
X171730952Y-92226028D01*
X172454761Y-91702219D02*
X172645237Y-92702219D01*
X172645237Y-92702219D02*
X172797618Y-91987933D01*
X172797618Y-91987933D02*
X172949999Y-92702219D01*
X172949999Y-92702219D02*
X173140476Y-91702219D01*
X173445238Y-92702219D02*
X173445238Y-91702219D01*
X173445238Y-91702219D02*
X173711904Y-92416504D01*
X173711904Y-92416504D02*
X173978571Y-91702219D01*
X173978571Y-91702219D02*
X173978571Y-92702219D01*
X174169048Y-92797457D02*
X174778571Y-92797457D01*
X174969048Y-92702219D02*
X174969048Y-91702219D01*
X175350000Y-92702219D02*
X175350000Y-91702219D01*
X175350000Y-91702219D02*
X175807143Y-92702219D01*
X175807143Y-92702219D02*
X175807143Y-91702219D01*
X176607142Y-92702219D02*
X176149999Y-92702219D01*
X176378571Y-92702219D02*
X176378571Y-91702219D01*
X176378571Y-91702219D02*
X176302380Y-91845076D01*
X176302380Y-91845076D02*
X176226190Y-91940314D01*
X176226190Y-91940314D02*
X176149999Y-91987933D01*
X116866667Y-52706980D02*
X116828571Y-52754600D01*
X116828571Y-52754600D02*
X116714286Y-52802219D01*
X116714286Y-52802219D02*
X116638095Y-52802219D01*
X116638095Y-52802219D02*
X116523809Y-52754600D01*
X116523809Y-52754600D02*
X116447619Y-52659361D01*
X116447619Y-52659361D02*
X116409524Y-52564123D01*
X116409524Y-52564123D02*
X116371428Y-52373647D01*
X116371428Y-52373647D02*
X116371428Y-52230790D01*
X116371428Y-52230790D02*
X116409524Y-52040314D01*
X116409524Y-52040314D02*
X116447619Y-51945076D01*
X116447619Y-51945076D02*
X116523809Y-51849838D01*
X116523809Y-51849838D02*
X116638095Y-51802219D01*
X116638095Y-51802219D02*
X116714286Y-51802219D01*
X116714286Y-51802219D02*
X116828571Y-51849838D01*
X116828571Y-51849838D02*
X116866667Y-51897457D01*
X117323809Y-52230790D02*
X117247619Y-52183171D01*
X117247619Y-52183171D02*
X117209524Y-52135552D01*
X117209524Y-52135552D02*
X117171428Y-52040314D01*
X117171428Y-52040314D02*
X117171428Y-51992695D01*
X117171428Y-51992695D02*
X117209524Y-51897457D01*
X117209524Y-51897457D02*
X117247619Y-51849838D01*
X117247619Y-51849838D02*
X117323809Y-51802219D01*
X117323809Y-51802219D02*
X117476190Y-51802219D01*
X117476190Y-51802219D02*
X117552381Y-51849838D01*
X117552381Y-51849838D02*
X117590476Y-51897457D01*
X117590476Y-51897457D02*
X117628571Y-51992695D01*
X117628571Y-51992695D02*
X117628571Y-52040314D01*
X117628571Y-52040314D02*
X117590476Y-52135552D01*
X117590476Y-52135552D02*
X117552381Y-52183171D01*
X117552381Y-52183171D02*
X117476190Y-52230790D01*
X117476190Y-52230790D02*
X117323809Y-52230790D01*
X117323809Y-52230790D02*
X117247619Y-52278409D01*
X117247619Y-52278409D02*
X117209524Y-52326028D01*
X117209524Y-52326028D02*
X117171428Y-52421266D01*
X117171428Y-52421266D02*
X117171428Y-52611742D01*
X117171428Y-52611742D02*
X117209524Y-52706980D01*
X117209524Y-52706980D02*
X117247619Y-52754600D01*
X117247619Y-52754600D02*
X117323809Y-52802219D01*
X117323809Y-52802219D02*
X117476190Y-52802219D01*
X117476190Y-52802219D02*
X117552381Y-52754600D01*
X117552381Y-52754600D02*
X117590476Y-52706980D01*
X117590476Y-52706980D02*
X117628571Y-52611742D01*
X117628571Y-52611742D02*
X117628571Y-52421266D01*
X117628571Y-52421266D02*
X117590476Y-52326028D01*
X117590476Y-52326028D02*
X117552381Y-52278409D01*
X117552381Y-52278409D02*
X117476190Y-52230790D01*
X111822219Y-84133332D02*
X111346028Y-84399999D01*
X111822219Y-84590475D02*
X110822219Y-84590475D01*
X110822219Y-84590475D02*
X110822219Y-84285713D01*
X110822219Y-84285713D02*
X110869838Y-84209523D01*
X110869838Y-84209523D02*
X110917457Y-84171428D01*
X110917457Y-84171428D02*
X111012695Y-84133332D01*
X111012695Y-84133332D02*
X111155552Y-84133332D01*
X111155552Y-84133332D02*
X111250790Y-84171428D01*
X111250790Y-84171428D02*
X111298409Y-84209523D01*
X111298409Y-84209523D02*
X111346028Y-84285713D01*
X111346028Y-84285713D02*
X111346028Y-84590475D01*
X110822219Y-83866666D02*
X110822219Y-83333332D01*
X110822219Y-83333332D02*
X111822219Y-83676190D01*
X209666667Y-80122219D02*
X209400000Y-79646028D01*
X209209524Y-80122219D02*
X209209524Y-79122219D01*
X209209524Y-79122219D02*
X209514286Y-79122219D01*
X209514286Y-79122219D02*
X209590476Y-79169838D01*
X209590476Y-79169838D02*
X209628571Y-79217457D01*
X209628571Y-79217457D02*
X209666667Y-79312695D01*
X209666667Y-79312695D02*
X209666667Y-79455552D01*
X209666667Y-79455552D02*
X209628571Y-79550790D01*
X209628571Y-79550790D02*
X209590476Y-79598409D01*
X209590476Y-79598409D02*
X209514286Y-79646028D01*
X209514286Y-79646028D02*
X209209524Y-79646028D01*
X209933333Y-79122219D02*
X210428571Y-79122219D01*
X210428571Y-79122219D02*
X210161905Y-79503171D01*
X210161905Y-79503171D02*
X210276190Y-79503171D01*
X210276190Y-79503171D02*
X210352381Y-79550790D01*
X210352381Y-79550790D02*
X210390476Y-79598409D01*
X210390476Y-79598409D02*
X210428571Y-79693647D01*
X210428571Y-79693647D02*
X210428571Y-79931742D01*
X210428571Y-79931742D02*
X210390476Y-80026980D01*
X210390476Y-80026980D02*
X210352381Y-80074600D01*
X210352381Y-80074600D02*
X210276190Y-80122219D01*
X210276190Y-80122219D02*
X210047619Y-80122219D01*
X210047619Y-80122219D02*
X209971428Y-80074600D01*
X209971428Y-80074600D02*
X209933333Y-80026980D01*
X146426190Y-93402219D02*
X146426190Y-92402219D01*
X146426190Y-92402219D02*
X146730952Y-92402219D01*
X146730952Y-92402219D02*
X146807142Y-92449838D01*
X146807142Y-92449838D02*
X146845237Y-92497457D01*
X146845237Y-92497457D02*
X146883333Y-92592695D01*
X146883333Y-92592695D02*
X146883333Y-92735552D01*
X146883333Y-92735552D02*
X146845237Y-92830790D01*
X146845237Y-92830790D02*
X146807142Y-92878409D01*
X146807142Y-92878409D02*
X146730952Y-92926028D01*
X146730952Y-92926028D02*
X146426190Y-92926028D01*
X147226190Y-92402219D02*
X147226190Y-93211742D01*
X147226190Y-93211742D02*
X147264285Y-93306980D01*
X147264285Y-93306980D02*
X147302380Y-93354600D01*
X147302380Y-93354600D02*
X147378571Y-93402219D01*
X147378571Y-93402219D02*
X147530952Y-93402219D01*
X147530952Y-93402219D02*
X147607142Y-93354600D01*
X147607142Y-93354600D02*
X147645237Y-93306980D01*
X147645237Y-93306980D02*
X147683333Y-93211742D01*
X147683333Y-93211742D02*
X147683333Y-92402219D01*
X148445237Y-93402219D02*
X148064285Y-93402219D01*
X148064285Y-93402219D02*
X148064285Y-92402219D01*
X148673808Y-93354600D02*
X148788094Y-93402219D01*
X148788094Y-93402219D02*
X148978570Y-93402219D01*
X148978570Y-93402219D02*
X149054761Y-93354600D01*
X149054761Y-93354600D02*
X149092856Y-93306980D01*
X149092856Y-93306980D02*
X149130951Y-93211742D01*
X149130951Y-93211742D02*
X149130951Y-93116504D01*
X149130951Y-93116504D02*
X149092856Y-93021266D01*
X149092856Y-93021266D02*
X149054761Y-92973647D01*
X149054761Y-92973647D02*
X148978570Y-92926028D01*
X148978570Y-92926028D02*
X148826189Y-92878409D01*
X148826189Y-92878409D02*
X148749999Y-92830790D01*
X148749999Y-92830790D02*
X148711904Y-92783171D01*
X148711904Y-92783171D02*
X148673808Y-92687933D01*
X148673808Y-92687933D02*
X148673808Y-92592695D01*
X148673808Y-92592695D02*
X148711904Y-92497457D01*
X148711904Y-92497457D02*
X148749999Y-92449838D01*
X148749999Y-92449838D02*
X148826189Y-92402219D01*
X148826189Y-92402219D02*
X149016666Y-92402219D01*
X149016666Y-92402219D02*
X149130951Y-92449838D01*
X149473809Y-92878409D02*
X149740475Y-92878409D01*
X149854761Y-93402219D02*
X149473809Y-93402219D01*
X149473809Y-93402219D02*
X149473809Y-92402219D01*
X149473809Y-92402219D02*
X149854761Y-92402219D01*
X150007143Y-93497457D02*
X150616666Y-93497457D01*
X150959524Y-92402219D02*
X151111905Y-92402219D01*
X151111905Y-92402219D02*
X151188095Y-92449838D01*
X151188095Y-92449838D02*
X151264286Y-92545076D01*
X151264286Y-92545076D02*
X151302381Y-92735552D01*
X151302381Y-92735552D02*
X151302381Y-93068885D01*
X151302381Y-93068885D02*
X151264286Y-93259361D01*
X151264286Y-93259361D02*
X151188095Y-93354600D01*
X151188095Y-93354600D02*
X151111905Y-93402219D01*
X151111905Y-93402219D02*
X150959524Y-93402219D01*
X150959524Y-93402219D02*
X150883333Y-93354600D01*
X150883333Y-93354600D02*
X150807143Y-93259361D01*
X150807143Y-93259361D02*
X150769047Y-93068885D01*
X150769047Y-93068885D02*
X150769047Y-92735552D01*
X150769047Y-92735552D02*
X150807143Y-92545076D01*
X150807143Y-92545076D02*
X150883333Y-92449838D01*
X150883333Y-92449838D02*
X150959524Y-92402219D01*
X151645238Y-92402219D02*
X151645238Y-93211742D01*
X151645238Y-93211742D02*
X151683333Y-93306980D01*
X151683333Y-93306980D02*
X151721428Y-93354600D01*
X151721428Y-93354600D02*
X151797619Y-93402219D01*
X151797619Y-93402219D02*
X151950000Y-93402219D01*
X151950000Y-93402219D02*
X152026190Y-93354600D01*
X152026190Y-93354600D02*
X152064285Y-93306980D01*
X152064285Y-93306980D02*
X152102381Y-93211742D01*
X152102381Y-93211742D02*
X152102381Y-92402219D01*
X152369047Y-92402219D02*
X152826190Y-92402219D01*
X152597618Y-93402219D02*
X152597618Y-92402219D01*
X153511904Y-93402219D02*
X153054761Y-93402219D01*
X153283333Y-93402219D02*
X153283333Y-92402219D01*
X153283333Y-92402219D02*
X153207142Y-92545076D01*
X153207142Y-92545076D02*
X153130952Y-92640314D01*
X153130952Y-92640314D02*
X153054761Y-92687933D01*
X111322219Y-60014285D02*
X110846028Y-60280952D01*
X111322219Y-60471428D02*
X110322219Y-60471428D01*
X110322219Y-60471428D02*
X110322219Y-60166666D01*
X110322219Y-60166666D02*
X110369838Y-60090476D01*
X110369838Y-60090476D02*
X110417457Y-60052381D01*
X110417457Y-60052381D02*
X110512695Y-60014285D01*
X110512695Y-60014285D02*
X110655552Y-60014285D01*
X110655552Y-60014285D02*
X110750790Y-60052381D01*
X110750790Y-60052381D02*
X110798409Y-60090476D01*
X110798409Y-60090476D02*
X110846028Y-60166666D01*
X110846028Y-60166666D02*
X110846028Y-60471428D01*
X110417457Y-59709524D02*
X110369838Y-59671428D01*
X110369838Y-59671428D02*
X110322219Y-59595238D01*
X110322219Y-59595238D02*
X110322219Y-59404762D01*
X110322219Y-59404762D02*
X110369838Y-59328571D01*
X110369838Y-59328571D02*
X110417457Y-59290476D01*
X110417457Y-59290476D02*
X110512695Y-59252381D01*
X110512695Y-59252381D02*
X110607933Y-59252381D01*
X110607933Y-59252381D02*
X110750790Y-59290476D01*
X110750790Y-59290476D02*
X111322219Y-59747619D01*
X111322219Y-59747619D02*
X111322219Y-59252381D01*
X111322219Y-58490476D02*
X111322219Y-58947619D01*
X111322219Y-58719047D02*
X110322219Y-58719047D01*
X110322219Y-58719047D02*
X110465076Y-58795238D01*
X110465076Y-58795238D02*
X110560314Y-58871428D01*
X110560314Y-58871428D02*
X110607933Y-58947619D01*
X116033333Y-28852219D02*
X116033333Y-29566504D01*
X116033333Y-29566504D02*
X115995238Y-29709361D01*
X115995238Y-29709361D02*
X115919047Y-29804600D01*
X115919047Y-29804600D02*
X115804762Y-29852219D01*
X115804762Y-29852219D02*
X115728571Y-29852219D01*
X116833333Y-29852219D02*
X116376190Y-29852219D01*
X116604762Y-29852219D02*
X116604762Y-28852219D01*
X116604762Y-28852219D02*
X116528571Y-28995076D01*
X116528571Y-28995076D02*
X116452381Y-29090314D01*
X116452381Y-29090314D02*
X116376190Y-29137933D01*
X151349542Y-34705717D02*
X151397162Y-34743813D01*
X151397162Y-34743813D02*
X151444781Y-34858098D01*
X151444781Y-34858098D02*
X151444781Y-34934289D01*
X151444781Y-34934289D02*
X151397162Y-35048575D01*
X151397162Y-35048575D02*
X151301923Y-35124765D01*
X151301923Y-35124765D02*
X151206685Y-35162860D01*
X151206685Y-35162860D02*
X151016209Y-35200956D01*
X151016209Y-35200956D02*
X150873352Y-35200956D01*
X150873352Y-35200956D02*
X150682876Y-35162860D01*
X150682876Y-35162860D02*
X150587638Y-35124765D01*
X150587638Y-35124765D02*
X150492400Y-35048575D01*
X150492400Y-35048575D02*
X150444781Y-34934289D01*
X150444781Y-34934289D02*
X150444781Y-34858098D01*
X150444781Y-34858098D02*
X150492400Y-34743813D01*
X150492400Y-34743813D02*
X150540019Y-34705717D01*
X150444781Y-34439051D02*
X150444781Y-33943813D01*
X150444781Y-33943813D02*
X150825733Y-34210479D01*
X150825733Y-34210479D02*
X150825733Y-34096194D01*
X150825733Y-34096194D02*
X150873352Y-34020003D01*
X150873352Y-34020003D02*
X150920971Y-33981908D01*
X150920971Y-33981908D02*
X151016209Y-33943813D01*
X151016209Y-33943813D02*
X151254304Y-33943813D01*
X151254304Y-33943813D02*
X151349542Y-33981908D01*
X151349542Y-33981908D02*
X151397162Y-34020003D01*
X151397162Y-34020003D02*
X151444781Y-34096194D01*
X151444781Y-34096194D02*
X151444781Y-34324765D01*
X151444781Y-34324765D02*
X151397162Y-34400956D01*
X151397162Y-34400956D02*
X151349542Y-34439051D01*
X209586667Y-72122219D02*
X209320000Y-71646028D01*
X209129524Y-72122219D02*
X209129524Y-71122219D01*
X209129524Y-71122219D02*
X209434286Y-71122219D01*
X209434286Y-71122219D02*
X209510476Y-71169838D01*
X209510476Y-71169838D02*
X209548571Y-71217457D01*
X209548571Y-71217457D02*
X209586667Y-71312695D01*
X209586667Y-71312695D02*
X209586667Y-71455552D01*
X209586667Y-71455552D02*
X209548571Y-71550790D01*
X209548571Y-71550790D02*
X209510476Y-71598409D01*
X209510476Y-71598409D02*
X209434286Y-71646028D01*
X209434286Y-71646028D02*
X209129524Y-71646028D01*
X209891428Y-71217457D02*
X209929524Y-71169838D01*
X209929524Y-71169838D02*
X210005714Y-71122219D01*
X210005714Y-71122219D02*
X210196190Y-71122219D01*
X210196190Y-71122219D02*
X210272381Y-71169838D01*
X210272381Y-71169838D02*
X210310476Y-71217457D01*
X210310476Y-71217457D02*
X210348571Y-71312695D01*
X210348571Y-71312695D02*
X210348571Y-71407933D01*
X210348571Y-71407933D02*
X210310476Y-71550790D01*
X210310476Y-71550790D02*
X209853333Y-72122219D01*
X209853333Y-72122219D02*
X210348571Y-72122219D01*
X162908276Y-60894604D02*
X162641609Y-60418413D01*
X162451133Y-60894604D02*
X162451133Y-59894604D01*
X162451133Y-59894604D02*
X162755895Y-59894604D01*
X162755895Y-59894604D02*
X162832085Y-59942223D01*
X162832085Y-59942223D02*
X162870180Y-59989842D01*
X162870180Y-59989842D02*
X162908276Y-60085080D01*
X162908276Y-60085080D02*
X162908276Y-60227937D01*
X162908276Y-60227937D02*
X162870180Y-60323175D01*
X162870180Y-60323175D02*
X162832085Y-60370794D01*
X162832085Y-60370794D02*
X162755895Y-60418413D01*
X162755895Y-60418413D02*
X162451133Y-60418413D01*
X163670180Y-60894604D02*
X163213037Y-60894604D01*
X163441609Y-60894604D02*
X163441609Y-59894604D01*
X163441609Y-59894604D02*
X163365418Y-60037461D01*
X163365418Y-60037461D02*
X163289228Y-60132699D01*
X163289228Y-60132699D02*
X163213037Y-60180318D01*
X163974942Y-59989842D02*
X164013038Y-59942223D01*
X164013038Y-59942223D02*
X164089228Y-59894604D01*
X164089228Y-59894604D02*
X164279704Y-59894604D01*
X164279704Y-59894604D02*
X164355895Y-59942223D01*
X164355895Y-59942223D02*
X164393990Y-59989842D01*
X164393990Y-59989842D02*
X164432085Y-60085080D01*
X164432085Y-60085080D02*
X164432085Y-60180318D01*
X164432085Y-60180318D02*
X164393990Y-60323175D01*
X164393990Y-60323175D02*
X163936847Y-60894604D01*
X163936847Y-60894604D02*
X164432085Y-60894604D01*
X154596371Y-43299842D02*
X154520181Y-43252223D01*
X154520181Y-43252223D02*
X154443990Y-43156985D01*
X154443990Y-43156985D02*
X154329704Y-43014127D01*
X154329704Y-43014127D02*
X154253514Y-42966508D01*
X154253514Y-42966508D02*
X154177323Y-42966508D01*
X154215419Y-43204604D02*
X154139228Y-43156985D01*
X154139228Y-43156985D02*
X154063038Y-43061746D01*
X154063038Y-43061746D02*
X154024942Y-42871270D01*
X154024942Y-42871270D02*
X154024942Y-42537937D01*
X154024942Y-42537937D02*
X154063038Y-42347461D01*
X154063038Y-42347461D02*
X154139228Y-42252223D01*
X154139228Y-42252223D02*
X154215419Y-42204604D01*
X154215419Y-42204604D02*
X154367800Y-42204604D01*
X154367800Y-42204604D02*
X154443990Y-42252223D01*
X154443990Y-42252223D02*
X154520181Y-42347461D01*
X154520181Y-42347461D02*
X154558276Y-42537937D01*
X154558276Y-42537937D02*
X154558276Y-42871270D01*
X154558276Y-42871270D02*
X154520181Y-43061746D01*
X154520181Y-43061746D02*
X154443990Y-43156985D01*
X154443990Y-43156985D02*
X154367800Y-43204604D01*
X154367800Y-43204604D02*
X154215419Y-43204604D01*
X154863037Y-42299842D02*
X154901133Y-42252223D01*
X154901133Y-42252223D02*
X154977323Y-42204604D01*
X154977323Y-42204604D02*
X155167799Y-42204604D01*
X155167799Y-42204604D02*
X155243990Y-42252223D01*
X155243990Y-42252223D02*
X155282085Y-42299842D01*
X155282085Y-42299842D02*
X155320180Y-42395080D01*
X155320180Y-42395080D02*
X155320180Y-42490318D01*
X155320180Y-42490318D02*
X155282085Y-42633175D01*
X155282085Y-42633175D02*
X154824942Y-43204604D01*
X154824942Y-43204604D02*
X155320180Y-43204604D01*
X156664285Y-65616504D02*
X157045238Y-65616504D01*
X156588095Y-65902219D02*
X156854762Y-64902219D01*
X156854762Y-64902219D02*
X157121428Y-65902219D01*
X157388095Y-65902219D02*
X157388095Y-64902219D01*
X157388095Y-64902219D02*
X157578571Y-64902219D01*
X157578571Y-64902219D02*
X157692857Y-64949838D01*
X157692857Y-64949838D02*
X157769047Y-65045076D01*
X157769047Y-65045076D02*
X157807142Y-65140314D01*
X157807142Y-65140314D02*
X157845238Y-65330790D01*
X157845238Y-65330790D02*
X157845238Y-65473647D01*
X157845238Y-65473647D02*
X157807142Y-65664123D01*
X157807142Y-65664123D02*
X157769047Y-65759361D01*
X157769047Y-65759361D02*
X157692857Y-65854600D01*
X157692857Y-65854600D02*
X157578571Y-65902219D01*
X157578571Y-65902219D02*
X157388095Y-65902219D01*
X158416666Y-64902219D02*
X158416666Y-65616504D01*
X158416666Y-65616504D02*
X158378571Y-65759361D01*
X158378571Y-65759361D02*
X158302380Y-65854600D01*
X158302380Y-65854600D02*
X158188095Y-65902219D01*
X158188095Y-65902219D02*
X158111904Y-65902219D01*
X158607143Y-65997457D02*
X159216666Y-65997457D01*
X159292857Y-64902219D02*
X159750000Y-64902219D01*
X159521428Y-65902219D02*
X159521428Y-64902219D01*
X160016667Y-64902219D02*
X160016667Y-65711742D01*
X160016667Y-65711742D02*
X160054762Y-65806980D01*
X160054762Y-65806980D02*
X160092857Y-65854600D01*
X160092857Y-65854600D02*
X160169048Y-65902219D01*
X160169048Y-65902219D02*
X160321429Y-65902219D01*
X160321429Y-65902219D02*
X160397619Y-65854600D01*
X160397619Y-65854600D02*
X160435714Y-65806980D01*
X160435714Y-65806980D02*
X160473810Y-65711742D01*
X160473810Y-65711742D02*
X160473810Y-64902219D01*
X160854762Y-65902219D02*
X160854762Y-64902219D01*
X160854762Y-64902219D02*
X161311905Y-65902219D01*
X161311905Y-65902219D02*
X161311905Y-64902219D01*
X161692857Y-65378409D02*
X161959523Y-65378409D01*
X162073809Y-65902219D02*
X161692857Y-65902219D01*
X161692857Y-65902219D02*
X161692857Y-64902219D01*
X161692857Y-64902219D02*
X162073809Y-64902219D01*
X162835714Y-65902219D02*
X162378571Y-65902219D01*
X162607143Y-65902219D02*
X162607143Y-64902219D01*
X162607143Y-64902219D02*
X162530952Y-65045076D01*
X162530952Y-65045076D02*
X162454762Y-65140314D01*
X162454762Y-65140314D02*
X162378571Y-65187933D01*
X192062219Y-99829285D02*
X191586028Y-100095952D01*
X192062219Y-100286428D02*
X191062219Y-100286428D01*
X191062219Y-100286428D02*
X191062219Y-99981666D01*
X191062219Y-99981666D02*
X191109838Y-99905476D01*
X191109838Y-99905476D02*
X191157457Y-99867381D01*
X191157457Y-99867381D02*
X191252695Y-99829285D01*
X191252695Y-99829285D02*
X191395552Y-99829285D01*
X191395552Y-99829285D02*
X191490790Y-99867381D01*
X191490790Y-99867381D02*
X191538409Y-99905476D01*
X191538409Y-99905476D02*
X191586028Y-99981666D01*
X191586028Y-99981666D02*
X191586028Y-100286428D01*
X192062219Y-99067381D02*
X192062219Y-99524524D01*
X192062219Y-99295952D02*
X191062219Y-99295952D01*
X191062219Y-99295952D02*
X191205076Y-99372143D01*
X191205076Y-99372143D02*
X191300314Y-99448333D01*
X191300314Y-99448333D02*
X191347933Y-99524524D01*
X191062219Y-98800714D02*
X191062219Y-98267380D01*
X191062219Y-98267380D02*
X192062219Y-98610238D01*
X134714781Y-32862860D02*
X133714781Y-32862860D01*
X133714781Y-32862860D02*
X133714781Y-32672384D01*
X133714781Y-32672384D02*
X133762400Y-32558098D01*
X133762400Y-32558098D02*
X133857638Y-32481908D01*
X133857638Y-32481908D02*
X133952876Y-32443813D01*
X133952876Y-32443813D02*
X134143352Y-32405717D01*
X134143352Y-32405717D02*
X134286209Y-32405717D01*
X134286209Y-32405717D02*
X134476685Y-32443813D01*
X134476685Y-32443813D02*
X134571923Y-32481908D01*
X134571923Y-32481908D02*
X134667162Y-32558098D01*
X134667162Y-32558098D02*
X134714781Y-32672384D01*
X134714781Y-32672384D02*
X134714781Y-32862860D01*
X134714781Y-31643813D02*
X134714781Y-32100956D01*
X134714781Y-31872384D02*
X133714781Y-31872384D01*
X133714781Y-31872384D02*
X133857638Y-31948575D01*
X133857638Y-31948575D02*
X133952876Y-32024765D01*
X133952876Y-32024765D02*
X134000495Y-32100956D01*
X132594781Y-26681908D02*
X131594781Y-26681908D01*
X132594781Y-26224765D02*
X132023352Y-26567623D01*
X131594781Y-26224765D02*
X132166209Y-26681908D01*
X119866667Y-46106980D02*
X119828571Y-46154600D01*
X119828571Y-46154600D02*
X119714286Y-46202219D01*
X119714286Y-46202219D02*
X119638095Y-46202219D01*
X119638095Y-46202219D02*
X119523809Y-46154600D01*
X119523809Y-46154600D02*
X119447619Y-46059361D01*
X119447619Y-46059361D02*
X119409524Y-45964123D01*
X119409524Y-45964123D02*
X119371428Y-45773647D01*
X119371428Y-45773647D02*
X119371428Y-45630790D01*
X119371428Y-45630790D02*
X119409524Y-45440314D01*
X119409524Y-45440314D02*
X119447619Y-45345076D01*
X119447619Y-45345076D02*
X119523809Y-45249838D01*
X119523809Y-45249838D02*
X119638095Y-45202219D01*
X119638095Y-45202219D02*
X119714286Y-45202219D01*
X119714286Y-45202219D02*
X119828571Y-45249838D01*
X119828571Y-45249838D02*
X119866667Y-45297457D01*
X120552381Y-45202219D02*
X120400000Y-45202219D01*
X120400000Y-45202219D02*
X120323809Y-45249838D01*
X120323809Y-45249838D02*
X120285714Y-45297457D01*
X120285714Y-45297457D02*
X120209524Y-45440314D01*
X120209524Y-45440314D02*
X120171428Y-45630790D01*
X120171428Y-45630790D02*
X120171428Y-46011742D01*
X120171428Y-46011742D02*
X120209524Y-46106980D01*
X120209524Y-46106980D02*
X120247619Y-46154600D01*
X120247619Y-46154600D02*
X120323809Y-46202219D01*
X120323809Y-46202219D02*
X120476190Y-46202219D01*
X120476190Y-46202219D02*
X120552381Y-46154600D01*
X120552381Y-46154600D02*
X120590476Y-46106980D01*
X120590476Y-46106980D02*
X120628571Y-46011742D01*
X120628571Y-46011742D02*
X120628571Y-45773647D01*
X120628571Y-45773647D02*
X120590476Y-45678409D01*
X120590476Y-45678409D02*
X120552381Y-45630790D01*
X120552381Y-45630790D02*
X120476190Y-45583171D01*
X120476190Y-45583171D02*
X120323809Y-45583171D01*
X120323809Y-45583171D02*
X120247619Y-45630790D01*
X120247619Y-45630790D02*
X120209524Y-45678409D01*
X120209524Y-45678409D02*
X120171428Y-45773647D01*
X119142856Y-93354600D02*
X119257142Y-93402219D01*
X119257142Y-93402219D02*
X119447618Y-93402219D01*
X119447618Y-93402219D02*
X119523809Y-93354600D01*
X119523809Y-93354600D02*
X119561904Y-93306980D01*
X119561904Y-93306980D02*
X119599999Y-93211742D01*
X119599999Y-93211742D02*
X119599999Y-93116504D01*
X119599999Y-93116504D02*
X119561904Y-93021266D01*
X119561904Y-93021266D02*
X119523809Y-92973647D01*
X119523809Y-92973647D02*
X119447618Y-92926028D01*
X119447618Y-92926028D02*
X119295237Y-92878409D01*
X119295237Y-92878409D02*
X119219047Y-92830790D01*
X119219047Y-92830790D02*
X119180952Y-92783171D01*
X119180952Y-92783171D02*
X119142856Y-92687933D01*
X119142856Y-92687933D02*
X119142856Y-92592695D01*
X119142856Y-92592695D02*
X119180952Y-92497457D01*
X119180952Y-92497457D02*
X119219047Y-92449838D01*
X119219047Y-92449838D02*
X119295237Y-92402219D01*
X119295237Y-92402219D02*
X119485714Y-92402219D01*
X119485714Y-92402219D02*
X119599999Y-92449838D01*
X119904761Y-93116504D02*
X120285714Y-93116504D01*
X119828571Y-93402219D02*
X120095238Y-92402219D01*
X120095238Y-92402219D02*
X120361904Y-93402219D01*
X120552380Y-92402219D02*
X120742856Y-93402219D01*
X120742856Y-93402219D02*
X120895237Y-92687933D01*
X120895237Y-92687933D02*
X121047618Y-93402219D01*
X121047618Y-93402219D02*
X121238095Y-92402219D01*
X121352381Y-93497457D02*
X121961904Y-93497457D01*
X122304762Y-92402219D02*
X122457143Y-92402219D01*
X122457143Y-92402219D02*
X122533333Y-92449838D01*
X122533333Y-92449838D02*
X122609524Y-92545076D01*
X122609524Y-92545076D02*
X122647619Y-92735552D01*
X122647619Y-92735552D02*
X122647619Y-93068885D01*
X122647619Y-93068885D02*
X122609524Y-93259361D01*
X122609524Y-93259361D02*
X122533333Y-93354600D01*
X122533333Y-93354600D02*
X122457143Y-93402219D01*
X122457143Y-93402219D02*
X122304762Y-93402219D01*
X122304762Y-93402219D02*
X122228571Y-93354600D01*
X122228571Y-93354600D02*
X122152381Y-93259361D01*
X122152381Y-93259361D02*
X122114285Y-93068885D01*
X122114285Y-93068885D02*
X122114285Y-92735552D01*
X122114285Y-92735552D02*
X122152381Y-92545076D01*
X122152381Y-92545076D02*
X122228571Y-92449838D01*
X122228571Y-92449838D02*
X122304762Y-92402219D01*
X122990476Y-92402219D02*
X122990476Y-93211742D01*
X122990476Y-93211742D02*
X123028571Y-93306980D01*
X123028571Y-93306980D02*
X123066666Y-93354600D01*
X123066666Y-93354600D02*
X123142857Y-93402219D01*
X123142857Y-93402219D02*
X123295238Y-93402219D01*
X123295238Y-93402219D02*
X123371428Y-93354600D01*
X123371428Y-93354600D02*
X123409523Y-93306980D01*
X123409523Y-93306980D02*
X123447619Y-93211742D01*
X123447619Y-93211742D02*
X123447619Y-92402219D01*
X123714285Y-92402219D02*
X124171428Y-92402219D01*
X123942856Y-93402219D02*
X123942856Y-92402219D01*
X124857142Y-93402219D02*
X124399999Y-93402219D01*
X124628571Y-93402219D02*
X124628571Y-92402219D01*
X124628571Y-92402219D02*
X124552380Y-92545076D01*
X124552380Y-92545076D02*
X124476190Y-92640314D01*
X124476190Y-92640314D02*
X124399999Y-92687933D01*
X209746667Y-44422219D02*
X209480000Y-43946028D01*
X209289524Y-44422219D02*
X209289524Y-43422219D01*
X209289524Y-43422219D02*
X209594286Y-43422219D01*
X209594286Y-43422219D02*
X209670476Y-43469838D01*
X209670476Y-43469838D02*
X209708571Y-43517457D01*
X209708571Y-43517457D02*
X209746667Y-43612695D01*
X209746667Y-43612695D02*
X209746667Y-43755552D01*
X209746667Y-43755552D02*
X209708571Y-43850790D01*
X209708571Y-43850790D02*
X209670476Y-43898409D01*
X209670476Y-43898409D02*
X209594286Y-43946028D01*
X209594286Y-43946028D02*
X209289524Y-43946028D01*
X210432381Y-43755552D02*
X210432381Y-44422219D01*
X210241905Y-43374600D02*
X210051428Y-44088885D01*
X210051428Y-44088885D02*
X210546667Y-44088885D01*
X188564781Y-35466670D02*
X188088590Y-35733337D01*
X188564781Y-35923813D02*
X187564781Y-35923813D01*
X187564781Y-35923813D02*
X187564781Y-35619051D01*
X187564781Y-35619051D02*
X187612400Y-35542861D01*
X187612400Y-35542861D02*
X187660019Y-35504766D01*
X187660019Y-35504766D02*
X187755257Y-35466670D01*
X187755257Y-35466670D02*
X187898114Y-35466670D01*
X187898114Y-35466670D02*
X187993352Y-35504766D01*
X187993352Y-35504766D02*
X188040971Y-35542861D01*
X188040971Y-35542861D02*
X188088590Y-35619051D01*
X188088590Y-35619051D02*
X188088590Y-35923813D01*
X188564781Y-34704766D02*
X188564781Y-35161909D01*
X188564781Y-34933337D02*
X187564781Y-34933337D01*
X187564781Y-34933337D02*
X187707638Y-35009528D01*
X187707638Y-35009528D02*
X187802876Y-35085718D01*
X187802876Y-35085718D02*
X187850495Y-35161909D01*
X187564781Y-34209527D02*
X187564781Y-34133337D01*
X187564781Y-34133337D02*
X187612400Y-34057146D01*
X187612400Y-34057146D02*
X187660019Y-34019051D01*
X187660019Y-34019051D02*
X187755257Y-33980956D01*
X187755257Y-33980956D02*
X187945733Y-33942861D01*
X187945733Y-33942861D02*
X188183828Y-33942861D01*
X188183828Y-33942861D02*
X188374304Y-33980956D01*
X188374304Y-33980956D02*
X188469542Y-34019051D01*
X188469542Y-34019051D02*
X188517162Y-34057146D01*
X188517162Y-34057146D02*
X188564781Y-34133337D01*
X188564781Y-34133337D02*
X188564781Y-34209527D01*
X188564781Y-34209527D02*
X188517162Y-34285718D01*
X188517162Y-34285718D02*
X188469542Y-34323813D01*
X188469542Y-34323813D02*
X188374304Y-34361908D01*
X188374304Y-34361908D02*
X188183828Y-34400004D01*
X188183828Y-34400004D02*
X187945733Y-34400004D01*
X187945733Y-34400004D02*
X187755257Y-34361908D01*
X187755257Y-34361908D02*
X187660019Y-34323813D01*
X187660019Y-34323813D02*
X187612400Y-34285718D01*
X187612400Y-34285718D02*
X187564781Y-34209527D01*
D12*
X198606905Y-27144819D02*
X198606905Y-26144819D01*
X198606905Y-26144819D02*
X198845000Y-26144819D01*
X198845000Y-26144819D02*
X198987857Y-26192438D01*
X198987857Y-26192438D02*
X199083095Y-26287676D01*
X199083095Y-26287676D02*
X199130714Y-26382914D01*
X199130714Y-26382914D02*
X199178333Y-26573390D01*
X199178333Y-26573390D02*
X199178333Y-26716247D01*
X199178333Y-26716247D02*
X199130714Y-26906723D01*
X199130714Y-26906723D02*
X199083095Y-27001961D01*
X199083095Y-27001961D02*
X198987857Y-27097200D01*
X198987857Y-27097200D02*
X198845000Y-27144819D01*
X198845000Y-27144819D02*
X198606905Y-27144819D01*
X200035476Y-26478152D02*
X200035476Y-27144819D01*
X199797381Y-26097200D02*
X199559286Y-26811485D01*
X199559286Y-26811485D02*
X200178333Y-26811485D01*
D11*
X168543038Y-30114604D02*
X168543038Y-30924127D01*
X168543038Y-30924127D02*
X168581133Y-31019365D01*
X168581133Y-31019365D02*
X168619228Y-31066985D01*
X168619228Y-31066985D02*
X168695419Y-31114604D01*
X168695419Y-31114604D02*
X168847800Y-31114604D01*
X168847800Y-31114604D02*
X168923990Y-31066985D01*
X168923990Y-31066985D02*
X168962085Y-31019365D01*
X168962085Y-31019365D02*
X169000181Y-30924127D01*
X169000181Y-30924127D02*
X169000181Y-30114604D01*
X169343037Y-30209842D02*
X169381133Y-30162223D01*
X169381133Y-30162223D02*
X169457323Y-30114604D01*
X169457323Y-30114604D02*
X169647799Y-30114604D01*
X169647799Y-30114604D02*
X169723990Y-30162223D01*
X169723990Y-30162223D02*
X169762085Y-30209842D01*
X169762085Y-30209842D02*
X169800180Y-30305080D01*
X169800180Y-30305080D02*
X169800180Y-30400318D01*
X169800180Y-30400318D02*
X169762085Y-30543175D01*
X169762085Y-30543175D02*
X169304942Y-31114604D01*
X169304942Y-31114604D02*
X169800180Y-31114604D01*
X140533038Y-23724604D02*
X140533038Y-24534127D01*
X140533038Y-24534127D02*
X140571133Y-24629365D01*
X140571133Y-24629365D02*
X140609228Y-24676985D01*
X140609228Y-24676985D02*
X140685419Y-24724604D01*
X140685419Y-24724604D02*
X140837800Y-24724604D01*
X140837800Y-24724604D02*
X140913990Y-24676985D01*
X140913990Y-24676985D02*
X140952085Y-24629365D01*
X140952085Y-24629365D02*
X140990181Y-24534127D01*
X140990181Y-24534127D02*
X140990181Y-23724604D01*
X141790180Y-24724604D02*
X141333037Y-24724604D01*
X141561609Y-24724604D02*
X141561609Y-23724604D01*
X141561609Y-23724604D02*
X141485418Y-23867461D01*
X141485418Y-23867461D02*
X141409228Y-23962699D01*
X141409228Y-23962699D02*
X141333037Y-24010318D01*
X116866667Y-54506980D02*
X116828571Y-54554600D01*
X116828571Y-54554600D02*
X116714286Y-54602219D01*
X116714286Y-54602219D02*
X116638095Y-54602219D01*
X116638095Y-54602219D02*
X116523809Y-54554600D01*
X116523809Y-54554600D02*
X116447619Y-54459361D01*
X116447619Y-54459361D02*
X116409524Y-54364123D01*
X116409524Y-54364123D02*
X116371428Y-54173647D01*
X116371428Y-54173647D02*
X116371428Y-54030790D01*
X116371428Y-54030790D02*
X116409524Y-53840314D01*
X116409524Y-53840314D02*
X116447619Y-53745076D01*
X116447619Y-53745076D02*
X116523809Y-53649838D01*
X116523809Y-53649838D02*
X116638095Y-53602219D01*
X116638095Y-53602219D02*
X116714286Y-53602219D01*
X116714286Y-53602219D02*
X116828571Y-53649838D01*
X116828571Y-53649838D02*
X116866667Y-53697457D01*
X117247619Y-54602219D02*
X117400000Y-54602219D01*
X117400000Y-54602219D02*
X117476190Y-54554600D01*
X117476190Y-54554600D02*
X117514286Y-54506980D01*
X117514286Y-54506980D02*
X117590476Y-54364123D01*
X117590476Y-54364123D02*
X117628571Y-54173647D01*
X117628571Y-54173647D02*
X117628571Y-53792695D01*
X117628571Y-53792695D02*
X117590476Y-53697457D01*
X117590476Y-53697457D02*
X117552381Y-53649838D01*
X117552381Y-53649838D02*
X117476190Y-53602219D01*
X117476190Y-53602219D02*
X117323809Y-53602219D01*
X117323809Y-53602219D02*
X117247619Y-53649838D01*
X117247619Y-53649838D02*
X117209524Y-53697457D01*
X117209524Y-53697457D02*
X117171428Y-53792695D01*
X117171428Y-53792695D02*
X117171428Y-54030790D01*
X117171428Y-54030790D02*
X117209524Y-54126028D01*
X117209524Y-54126028D02*
X117247619Y-54173647D01*
X117247619Y-54173647D02*
X117323809Y-54221266D01*
X117323809Y-54221266D02*
X117476190Y-54221266D01*
X117476190Y-54221266D02*
X117552381Y-54173647D01*
X117552381Y-54173647D02*
X117590476Y-54126028D01*
X117590476Y-54126028D02*
X117628571Y-54030790D01*
X158942219Y-93514285D02*
X158466028Y-93780952D01*
X158942219Y-93971428D02*
X157942219Y-93971428D01*
X157942219Y-93971428D02*
X157942219Y-93666666D01*
X157942219Y-93666666D02*
X157989838Y-93590476D01*
X157989838Y-93590476D02*
X158037457Y-93552381D01*
X158037457Y-93552381D02*
X158132695Y-93514285D01*
X158132695Y-93514285D02*
X158275552Y-93514285D01*
X158275552Y-93514285D02*
X158370790Y-93552381D01*
X158370790Y-93552381D02*
X158418409Y-93590476D01*
X158418409Y-93590476D02*
X158466028Y-93666666D01*
X158466028Y-93666666D02*
X158466028Y-93971428D01*
X158942219Y-92752381D02*
X158942219Y-93209524D01*
X158942219Y-92980952D02*
X157942219Y-92980952D01*
X157942219Y-92980952D02*
X158085076Y-93057143D01*
X158085076Y-93057143D02*
X158180314Y-93133333D01*
X158180314Y-93133333D02*
X158227933Y-93209524D01*
X157942219Y-92066666D02*
X157942219Y-92219047D01*
X157942219Y-92219047D02*
X157989838Y-92295238D01*
X157989838Y-92295238D02*
X158037457Y-92333333D01*
X158037457Y-92333333D02*
X158180314Y-92409523D01*
X158180314Y-92409523D02*
X158370790Y-92447619D01*
X158370790Y-92447619D02*
X158751742Y-92447619D01*
X158751742Y-92447619D02*
X158846980Y-92409523D01*
X158846980Y-92409523D02*
X158894600Y-92371428D01*
X158894600Y-92371428D02*
X158942219Y-92295238D01*
X158942219Y-92295238D02*
X158942219Y-92142857D01*
X158942219Y-92142857D02*
X158894600Y-92066666D01*
X158894600Y-92066666D02*
X158846980Y-92028571D01*
X158846980Y-92028571D02*
X158751742Y-91990476D01*
X158751742Y-91990476D02*
X158513647Y-91990476D01*
X158513647Y-91990476D02*
X158418409Y-92028571D01*
X158418409Y-92028571D02*
X158370790Y-92066666D01*
X158370790Y-92066666D02*
X158323171Y-92142857D01*
X158323171Y-92142857D02*
X158323171Y-92295238D01*
X158323171Y-92295238D02*
X158370790Y-92371428D01*
X158370790Y-92371428D02*
X158418409Y-92409523D01*
X158418409Y-92409523D02*
X158513647Y-92447619D01*
X154596371Y-54619842D02*
X154520181Y-54572223D01*
X154520181Y-54572223D02*
X154443990Y-54476985D01*
X154443990Y-54476985D02*
X154329704Y-54334127D01*
X154329704Y-54334127D02*
X154253514Y-54286508D01*
X154253514Y-54286508D02*
X154177323Y-54286508D01*
X154215419Y-54524604D02*
X154139228Y-54476985D01*
X154139228Y-54476985D02*
X154063038Y-54381746D01*
X154063038Y-54381746D02*
X154024942Y-54191270D01*
X154024942Y-54191270D02*
X154024942Y-53857937D01*
X154024942Y-53857937D02*
X154063038Y-53667461D01*
X154063038Y-53667461D02*
X154139228Y-53572223D01*
X154139228Y-53572223D02*
X154215419Y-53524604D01*
X154215419Y-53524604D02*
X154367800Y-53524604D01*
X154367800Y-53524604D02*
X154443990Y-53572223D01*
X154443990Y-53572223D02*
X154520181Y-53667461D01*
X154520181Y-53667461D02*
X154558276Y-53857937D01*
X154558276Y-53857937D02*
X154558276Y-54191270D01*
X154558276Y-54191270D02*
X154520181Y-54381746D01*
X154520181Y-54381746D02*
X154443990Y-54476985D01*
X154443990Y-54476985D02*
X154367800Y-54524604D01*
X154367800Y-54524604D02*
X154215419Y-54524604D01*
X155320180Y-54524604D02*
X154863037Y-54524604D01*
X155091609Y-54524604D02*
X155091609Y-53524604D01*
X155091609Y-53524604D02*
X155015418Y-53667461D01*
X155015418Y-53667461D02*
X154939228Y-53762699D01*
X154939228Y-53762699D02*
X154863037Y-53810318D01*
X218528409Y-88188095D02*
X218528409Y-88454761D01*
X219052219Y-88454761D02*
X218052219Y-88454761D01*
X218052219Y-88454761D02*
X218052219Y-88073809D01*
X219052219Y-87769047D02*
X218052219Y-87769047D01*
X218052219Y-87769047D02*
X218766504Y-87502381D01*
X218766504Y-87502381D02*
X218052219Y-87235714D01*
X218052219Y-87235714D02*
X219052219Y-87235714D01*
X219147457Y-87045238D02*
X219147457Y-86435714D01*
X219052219Y-86245237D02*
X218052219Y-86245237D01*
X219052219Y-85864285D02*
X218052219Y-85864285D01*
X218052219Y-85864285D02*
X219052219Y-85407142D01*
X219052219Y-85407142D02*
X218052219Y-85407142D01*
X219052219Y-84607143D02*
X219052219Y-85064286D01*
X219052219Y-84835714D02*
X218052219Y-84835714D01*
X218052219Y-84835714D02*
X218195076Y-84911905D01*
X218195076Y-84911905D02*
X218290314Y-84988095D01*
X218290314Y-84988095D02*
X218337933Y-85064286D01*
X198852381Y-101202219D02*
X198852381Y-100202219D01*
X198852381Y-100202219D02*
X199157143Y-100202219D01*
X199157143Y-100202219D02*
X199233333Y-100249838D01*
X199233333Y-100249838D02*
X199271428Y-100297457D01*
X199271428Y-100297457D02*
X199309524Y-100392695D01*
X199309524Y-100392695D02*
X199309524Y-100535552D01*
X199309524Y-100535552D02*
X199271428Y-100630790D01*
X199271428Y-100630790D02*
X199233333Y-100678409D01*
X199233333Y-100678409D02*
X199157143Y-100726028D01*
X199157143Y-100726028D02*
X198852381Y-100726028D01*
X199576190Y-100202219D02*
X199766666Y-101202219D01*
X199766666Y-101202219D02*
X199919047Y-100487933D01*
X199919047Y-100487933D02*
X200071428Y-101202219D01*
X200071428Y-101202219D02*
X200261905Y-100202219D01*
X200566667Y-101202219D02*
X200566667Y-100202219D01*
X200566667Y-100202219D02*
X200833333Y-100916504D01*
X200833333Y-100916504D02*
X201100000Y-100202219D01*
X201100000Y-100202219D02*
X201100000Y-101202219D01*
X201290477Y-101297457D02*
X201900000Y-101297457D01*
X202547620Y-101106980D02*
X202509524Y-101154600D01*
X202509524Y-101154600D02*
X202395239Y-101202219D01*
X202395239Y-101202219D02*
X202319048Y-101202219D01*
X202319048Y-101202219D02*
X202204762Y-101154600D01*
X202204762Y-101154600D02*
X202128572Y-101059361D01*
X202128572Y-101059361D02*
X202090477Y-100964123D01*
X202090477Y-100964123D02*
X202052381Y-100773647D01*
X202052381Y-100773647D02*
X202052381Y-100630790D01*
X202052381Y-100630790D02*
X202090477Y-100440314D01*
X202090477Y-100440314D02*
X202128572Y-100345076D01*
X202128572Y-100345076D02*
X202204762Y-100249838D01*
X202204762Y-100249838D02*
X202319048Y-100202219D01*
X202319048Y-100202219D02*
X202395239Y-100202219D01*
X202395239Y-100202219D02*
X202509524Y-100249838D01*
X202509524Y-100249838D02*
X202547620Y-100297457D01*
X202776191Y-100202219D02*
X203042858Y-101202219D01*
X203042858Y-101202219D02*
X203309524Y-100202219D01*
X203385715Y-101297457D02*
X203995238Y-101297457D01*
X204566667Y-101202219D02*
X204185715Y-101202219D01*
X204185715Y-101202219D02*
X204185715Y-100202219D01*
X204719048Y-100202219D02*
X204985715Y-101202219D01*
X204985715Y-101202219D02*
X205252381Y-100202219D01*
X205900000Y-101202219D02*
X205519048Y-101202219D01*
X205519048Y-101202219D02*
X205519048Y-100202219D01*
X206585714Y-101202219D02*
X206128571Y-101202219D01*
X206357143Y-101202219D02*
X206357143Y-100202219D01*
X206357143Y-100202219D02*
X206280952Y-100345076D01*
X206280952Y-100345076D02*
X206204762Y-100440314D01*
X206204762Y-100440314D02*
X206128571Y-100487933D01*
X113866667Y-46106980D02*
X113828571Y-46154600D01*
X113828571Y-46154600D02*
X113714286Y-46202219D01*
X113714286Y-46202219D02*
X113638095Y-46202219D01*
X113638095Y-46202219D02*
X113523809Y-46154600D01*
X113523809Y-46154600D02*
X113447619Y-46059361D01*
X113447619Y-46059361D02*
X113409524Y-45964123D01*
X113409524Y-45964123D02*
X113371428Y-45773647D01*
X113371428Y-45773647D02*
X113371428Y-45630790D01*
X113371428Y-45630790D02*
X113409524Y-45440314D01*
X113409524Y-45440314D02*
X113447619Y-45345076D01*
X113447619Y-45345076D02*
X113523809Y-45249838D01*
X113523809Y-45249838D02*
X113638095Y-45202219D01*
X113638095Y-45202219D02*
X113714286Y-45202219D01*
X113714286Y-45202219D02*
X113828571Y-45249838D01*
X113828571Y-45249838D02*
X113866667Y-45297457D01*
X114133333Y-45202219D02*
X114666667Y-45202219D01*
X114666667Y-45202219D02*
X114323809Y-46202219D01*
X111422219Y-46090475D02*
X110422219Y-46090475D01*
X110422219Y-46090475D02*
X110422219Y-45899999D01*
X110422219Y-45899999D02*
X110469838Y-45785713D01*
X110469838Y-45785713D02*
X110565076Y-45709523D01*
X110565076Y-45709523D02*
X110660314Y-45671428D01*
X110660314Y-45671428D02*
X110850790Y-45633332D01*
X110850790Y-45633332D02*
X110993647Y-45633332D01*
X110993647Y-45633332D02*
X111184123Y-45671428D01*
X111184123Y-45671428D02*
X111279361Y-45709523D01*
X111279361Y-45709523D02*
X111374600Y-45785713D01*
X111374600Y-45785713D02*
X111422219Y-45899999D01*
X111422219Y-45899999D02*
X111422219Y-46090475D01*
X110422219Y-45366666D02*
X110422219Y-44871428D01*
X110422219Y-44871428D02*
X110803171Y-45138094D01*
X110803171Y-45138094D02*
X110803171Y-45023809D01*
X110803171Y-45023809D02*
X110850790Y-44947618D01*
X110850790Y-44947618D02*
X110898409Y-44909523D01*
X110898409Y-44909523D02*
X110993647Y-44871428D01*
X110993647Y-44871428D02*
X111231742Y-44871428D01*
X111231742Y-44871428D02*
X111326980Y-44909523D01*
X111326980Y-44909523D02*
X111374600Y-44947618D01*
X111374600Y-44947618D02*
X111422219Y-45023809D01*
X111422219Y-45023809D02*
X111422219Y-45252380D01*
X111422219Y-45252380D02*
X111374600Y-45328571D01*
X111374600Y-45328571D02*
X111326980Y-45366666D01*
X111052219Y-40629523D02*
X110052219Y-40629523D01*
X111052219Y-40172380D02*
X110480790Y-40515238D01*
X110052219Y-40172380D02*
X110623647Y-40629523D01*
X133082219Y-64213332D02*
X132606028Y-64479999D01*
X133082219Y-64670475D02*
X132082219Y-64670475D01*
X132082219Y-64670475D02*
X132082219Y-64365713D01*
X132082219Y-64365713D02*
X132129838Y-64289523D01*
X132129838Y-64289523D02*
X132177457Y-64251428D01*
X132177457Y-64251428D02*
X132272695Y-64213332D01*
X132272695Y-64213332D02*
X132415552Y-64213332D01*
X132415552Y-64213332D02*
X132510790Y-64251428D01*
X132510790Y-64251428D02*
X132558409Y-64289523D01*
X132558409Y-64289523D02*
X132606028Y-64365713D01*
X132606028Y-64365713D02*
X132606028Y-64670475D01*
X132510790Y-63756190D02*
X132463171Y-63832380D01*
X132463171Y-63832380D02*
X132415552Y-63870475D01*
X132415552Y-63870475D02*
X132320314Y-63908571D01*
X132320314Y-63908571D02*
X132272695Y-63908571D01*
X132272695Y-63908571D02*
X132177457Y-63870475D01*
X132177457Y-63870475D02*
X132129838Y-63832380D01*
X132129838Y-63832380D02*
X132082219Y-63756190D01*
X132082219Y-63756190D02*
X132082219Y-63603809D01*
X132082219Y-63603809D02*
X132129838Y-63527618D01*
X132129838Y-63527618D02*
X132177457Y-63489523D01*
X132177457Y-63489523D02*
X132272695Y-63451428D01*
X132272695Y-63451428D02*
X132320314Y-63451428D01*
X132320314Y-63451428D02*
X132415552Y-63489523D01*
X132415552Y-63489523D02*
X132463171Y-63527618D01*
X132463171Y-63527618D02*
X132510790Y-63603809D01*
X132510790Y-63603809D02*
X132510790Y-63756190D01*
X132510790Y-63756190D02*
X132558409Y-63832380D01*
X132558409Y-63832380D02*
X132606028Y-63870475D01*
X132606028Y-63870475D02*
X132701266Y-63908571D01*
X132701266Y-63908571D02*
X132891742Y-63908571D01*
X132891742Y-63908571D02*
X132986980Y-63870475D01*
X132986980Y-63870475D02*
X133034600Y-63832380D01*
X133034600Y-63832380D02*
X133082219Y-63756190D01*
X133082219Y-63756190D02*
X133082219Y-63603809D01*
X133082219Y-63603809D02*
X133034600Y-63527618D01*
X133034600Y-63527618D02*
X132986980Y-63489523D01*
X132986980Y-63489523D02*
X132891742Y-63451428D01*
X132891742Y-63451428D02*
X132701266Y-63451428D01*
X132701266Y-63451428D02*
X132606028Y-63489523D01*
X132606028Y-63489523D02*
X132558409Y-63527618D01*
X132558409Y-63527618D02*
X132510790Y-63603809D01*
X200280952Y-66528409D02*
X200014286Y-66528409D01*
X200014286Y-67052219D02*
X200014286Y-66052219D01*
X200014286Y-66052219D02*
X200395238Y-66052219D01*
X200700000Y-67052219D02*
X200700000Y-66052219D01*
X200700000Y-66052219D02*
X200966666Y-66766504D01*
X200966666Y-66766504D02*
X201233333Y-66052219D01*
X201233333Y-66052219D02*
X201233333Y-67052219D01*
X201423810Y-67147457D02*
X202033333Y-67147457D01*
X202604762Y-67052219D02*
X202223810Y-67052219D01*
X202223810Y-67052219D02*
X202223810Y-66052219D01*
X202757143Y-66052219D02*
X203023810Y-67052219D01*
X203023810Y-67052219D02*
X203290476Y-66052219D01*
X203938095Y-67052219D02*
X203557143Y-67052219D01*
X203557143Y-67052219D02*
X203557143Y-66052219D01*
X204623809Y-67052219D02*
X204166666Y-67052219D01*
X204395238Y-67052219D02*
X204395238Y-66052219D01*
X204395238Y-66052219D02*
X204319047Y-66195076D01*
X204319047Y-66195076D02*
X204242857Y-66290314D01*
X204242857Y-66290314D02*
X204166666Y-66337933D01*
X158049542Y-34705717D02*
X158097162Y-34743813D01*
X158097162Y-34743813D02*
X158144781Y-34858098D01*
X158144781Y-34858098D02*
X158144781Y-34934289D01*
X158144781Y-34934289D02*
X158097162Y-35048575D01*
X158097162Y-35048575D02*
X158001923Y-35124765D01*
X158001923Y-35124765D02*
X157906685Y-35162860D01*
X157906685Y-35162860D02*
X157716209Y-35200956D01*
X157716209Y-35200956D02*
X157573352Y-35200956D01*
X157573352Y-35200956D02*
X157382876Y-35162860D01*
X157382876Y-35162860D02*
X157287638Y-35124765D01*
X157287638Y-35124765D02*
X157192400Y-35048575D01*
X157192400Y-35048575D02*
X157144781Y-34934289D01*
X157144781Y-34934289D02*
X157144781Y-34858098D01*
X157144781Y-34858098D02*
X157192400Y-34743813D01*
X157192400Y-34743813D02*
X157240019Y-34705717D01*
X157144781Y-33981908D02*
X157144781Y-34362860D01*
X157144781Y-34362860D02*
X157620971Y-34400956D01*
X157620971Y-34400956D02*
X157573352Y-34362860D01*
X157573352Y-34362860D02*
X157525733Y-34286670D01*
X157525733Y-34286670D02*
X157525733Y-34096194D01*
X157525733Y-34096194D02*
X157573352Y-34020003D01*
X157573352Y-34020003D02*
X157620971Y-33981908D01*
X157620971Y-33981908D02*
X157716209Y-33943813D01*
X157716209Y-33943813D02*
X157954304Y-33943813D01*
X157954304Y-33943813D02*
X158049542Y-33981908D01*
X158049542Y-33981908D02*
X158097162Y-34020003D01*
X158097162Y-34020003D02*
X158144781Y-34096194D01*
X158144781Y-34096194D02*
X158144781Y-34286670D01*
X158144781Y-34286670D02*
X158097162Y-34362860D01*
X158097162Y-34362860D02*
X158049542Y-34400956D01*
X96364229Y69015634D02*
X96326133Y68968015D01*
X96326133Y68968015D02*
X96211848Y68920395D01*
X96211848Y68920395D02*
X96135657Y68920395D01*
X96135657Y68920395D02*
X96021371Y68968015D01*
X96021371Y68968015D02*
X95945181Y69063253D01*
X95945181Y69063253D02*
X95907086Y69158491D01*
X95907086Y69158491D02*
X95868990Y69348967D01*
X95868990Y69348967D02*
X95868990Y69491824D01*
X95868990Y69491824D02*
X95907086Y69682300D01*
X95907086Y69682300D02*
X95945181Y69777538D01*
X95945181Y69777538D02*
X96021371Y69872776D01*
X96021371Y69872776D02*
X96135657Y69920395D01*
X96135657Y69920395D02*
X96211848Y69920395D01*
X96211848Y69920395D02*
X96326133Y69872776D01*
X96326133Y69872776D02*
X96364229Y69825157D01*
X97126133Y68920395D02*
X96668990Y68920395D01*
X96897562Y68920395D02*
X96897562Y69920395D01*
X96897562Y69920395D02*
X96821371Y69777538D01*
X96821371Y69777538D02*
X96745181Y69682300D01*
X96745181Y69682300D02*
X96668990Y69634681D01*
X154129229Y-27154604D02*
X153862562Y-26678413D01*
X153672086Y-27154604D02*
X153672086Y-26154604D01*
X153672086Y-26154604D02*
X153976848Y-26154604D01*
X153976848Y-26154604D02*
X154053038Y-26202223D01*
X154053038Y-26202223D02*
X154091133Y-26249842D01*
X154091133Y-26249842D02*
X154129229Y-26345080D01*
X154129229Y-26345080D02*
X154129229Y-26487937D01*
X154129229Y-26487937D02*
X154091133Y-26583175D01*
X154091133Y-26583175D02*
X154053038Y-26630794D01*
X154053038Y-26630794D02*
X153976848Y-26678413D01*
X153976848Y-26678413D02*
X153672086Y-26678413D01*
X154891133Y-27154604D02*
X154433990Y-27154604D01*
X154662562Y-27154604D02*
X154662562Y-26154604D01*
X154662562Y-26154604D02*
X154586371Y-26297461D01*
X154586371Y-26297461D02*
X154510181Y-26392699D01*
X154510181Y-26392699D02*
X154433990Y-26440318D01*
X148250144Y-43750242D02*
X148250144Y-43293099D01*
X149250144Y-43521671D02*
X148250144Y-43521671D01*
X149250144Y-43026432D02*
X148250144Y-43026432D01*
X148726334Y-43026432D02*
X148726334Y-42569289D01*
X149250144Y-42569289D02*
X148250144Y-42569289D01*
X148583477Y-41845480D02*
X149250144Y-41845480D01*
X148202525Y-42035956D02*
X148916810Y-42226433D01*
X148916810Y-42226433D02*
X148916810Y-41731194D01*
X158094781Y-50832380D02*
X158094781Y-50375237D01*
X159094781Y-50603809D02*
X158094781Y-50603809D01*
X159094781Y-50108570D02*
X158094781Y-50108570D01*
X158570971Y-50108570D02*
X158570971Y-49651427D01*
X159094781Y-49651427D02*
X158094781Y-49651427D01*
X158190019Y-49308571D02*
X158142400Y-49270475D01*
X158142400Y-49270475D02*
X158094781Y-49194285D01*
X158094781Y-49194285D02*
X158094781Y-49003809D01*
X158094781Y-49003809D02*
X158142400Y-48927618D01*
X158142400Y-48927618D02*
X158190019Y-48889523D01*
X158190019Y-48889523D02*
X158285257Y-48851428D01*
X158285257Y-48851428D02*
X158380495Y-48851428D01*
X158380495Y-48851428D02*
X158523352Y-48889523D01*
X158523352Y-48889523D02*
X159094781Y-49346666D01*
X159094781Y-49346666D02*
X159094781Y-48851428D01*
X150170144Y-50831184D02*
X150170144Y-50374041D01*
X151170144Y-50602613D02*
X150170144Y-50602613D01*
X151170144Y-50107374D02*
X150170144Y-50107374D01*
X150646334Y-50107374D02*
X150646334Y-49650231D01*
X151170144Y-49650231D02*
X150170144Y-49650231D01*
X151170144Y-48850232D02*
X151170144Y-49307375D01*
X151170144Y-49078803D02*
X150170144Y-49078803D01*
X150170144Y-49078803D02*
X150313001Y-49154994D01*
X150313001Y-49154994D02*
X150408239Y-49231184D01*
X150408239Y-49231184D02*
X150455858Y-49307375D01*
X120650667Y-65052219D02*
X120384000Y-64576028D01*
X120193524Y-65052219D02*
X120193524Y-64052219D01*
X120193524Y-64052219D02*
X120498286Y-64052219D01*
X120498286Y-64052219D02*
X120574476Y-64099838D01*
X120574476Y-64099838D02*
X120612571Y-64147457D01*
X120612571Y-64147457D02*
X120650667Y-64242695D01*
X120650667Y-64242695D02*
X120650667Y-64385552D01*
X120650667Y-64385552D02*
X120612571Y-64480790D01*
X120612571Y-64480790D02*
X120574476Y-64528409D01*
X120574476Y-64528409D02*
X120498286Y-64576028D01*
X120498286Y-64576028D02*
X120193524Y-64576028D01*
X121336381Y-64052219D02*
X121184000Y-64052219D01*
X121184000Y-64052219D02*
X121107809Y-64099838D01*
X121107809Y-64099838D02*
X121069714Y-64147457D01*
X121069714Y-64147457D02*
X120993524Y-64290314D01*
X120993524Y-64290314D02*
X120955428Y-64480790D01*
X120955428Y-64480790D02*
X120955428Y-64861742D01*
X120955428Y-64861742D02*
X120993524Y-64956980D01*
X120993524Y-64956980D02*
X121031619Y-65004600D01*
X121031619Y-65004600D02*
X121107809Y-65052219D01*
X121107809Y-65052219D02*
X121260190Y-65052219D01*
X121260190Y-65052219D02*
X121336381Y-65004600D01*
X121336381Y-65004600D02*
X121374476Y-64956980D01*
X121374476Y-64956980D02*
X121412571Y-64861742D01*
X121412571Y-64861742D02*
X121412571Y-64623647D01*
X121412571Y-64623647D02*
X121374476Y-64528409D01*
X121374476Y-64528409D02*
X121336381Y-64480790D01*
X121336381Y-64480790D02*
X121260190Y-64433171D01*
X121260190Y-64433171D02*
X121107809Y-64433171D01*
X121107809Y-64433171D02*
X121031619Y-64480790D01*
X121031619Y-64480790D02*
X120993524Y-64528409D01*
X120993524Y-64528409D02*
X120955428Y-64623647D01*
X163902219Y-80254761D02*
X162902219Y-80254761D01*
X162902219Y-80254761D02*
X162902219Y-79949999D01*
X162902219Y-79949999D02*
X162949838Y-79873809D01*
X162949838Y-79873809D02*
X162997457Y-79835714D01*
X162997457Y-79835714D02*
X163092695Y-79797618D01*
X163092695Y-79797618D02*
X163235552Y-79797618D01*
X163235552Y-79797618D02*
X163330790Y-79835714D01*
X163330790Y-79835714D02*
X163378409Y-79873809D01*
X163378409Y-79873809D02*
X163426028Y-79949999D01*
X163426028Y-79949999D02*
X163426028Y-80254761D01*
X162902219Y-79530952D02*
X163902219Y-79340476D01*
X163902219Y-79340476D02*
X163187933Y-79188095D01*
X163187933Y-79188095D02*
X163902219Y-79035714D01*
X163902219Y-79035714D02*
X162902219Y-78845238D01*
X163902219Y-78540475D02*
X162902219Y-78540475D01*
X162902219Y-78540475D02*
X163616504Y-78273809D01*
X163616504Y-78273809D02*
X162902219Y-78007142D01*
X162902219Y-78007142D02*
X163902219Y-78007142D01*
X163902219Y-77207142D02*
X163902219Y-77664285D01*
X163902219Y-77435713D02*
X162902219Y-77435713D01*
X162902219Y-77435713D02*
X163045076Y-77511904D01*
X163045076Y-77511904D02*
X163140314Y-77588094D01*
X163140314Y-77588094D02*
X163187933Y-77664285D01*
X132922219Y-91573332D02*
X132446028Y-91839999D01*
X132922219Y-92030475D02*
X131922219Y-92030475D01*
X131922219Y-92030475D02*
X131922219Y-91725713D01*
X131922219Y-91725713D02*
X131969838Y-91649523D01*
X131969838Y-91649523D02*
X132017457Y-91611428D01*
X132017457Y-91611428D02*
X132112695Y-91573332D01*
X132112695Y-91573332D02*
X132255552Y-91573332D01*
X132255552Y-91573332D02*
X132350790Y-91611428D01*
X132350790Y-91611428D02*
X132398409Y-91649523D01*
X132398409Y-91649523D02*
X132446028Y-91725713D01*
X132446028Y-91725713D02*
X132446028Y-92030475D01*
X132922219Y-91192380D02*
X132922219Y-91039999D01*
X132922219Y-91039999D02*
X132874600Y-90963809D01*
X132874600Y-90963809D02*
X132826980Y-90925713D01*
X132826980Y-90925713D02*
X132684123Y-90849523D01*
X132684123Y-90849523D02*
X132493647Y-90811428D01*
X132493647Y-90811428D02*
X132112695Y-90811428D01*
X132112695Y-90811428D02*
X132017457Y-90849523D01*
X132017457Y-90849523D02*
X131969838Y-90887618D01*
X131969838Y-90887618D02*
X131922219Y-90963809D01*
X131922219Y-90963809D02*
X131922219Y-91116190D01*
X131922219Y-91116190D02*
X131969838Y-91192380D01*
X131969838Y-91192380D02*
X132017457Y-91230475D01*
X132017457Y-91230475D02*
X132112695Y-91268571D01*
X132112695Y-91268571D02*
X132350790Y-91268571D01*
X132350790Y-91268571D02*
X132446028Y-91230475D01*
X132446028Y-91230475D02*
X132493647Y-91192380D01*
X132493647Y-91192380D02*
X132541266Y-91116190D01*
X132541266Y-91116190D02*
X132541266Y-90963809D01*
X132541266Y-90963809D02*
X132493647Y-90887618D01*
X132493647Y-90887618D02*
X132446028Y-90849523D01*
X132446028Y-90849523D02*
X132350790Y-90811428D01*
X180448276Y-43624604D02*
X180181609Y-43148413D01*
X179991133Y-43624604D02*
X179991133Y-42624604D01*
X179991133Y-42624604D02*
X180295895Y-42624604D01*
X180295895Y-42624604D02*
X180372085Y-42672223D01*
X180372085Y-42672223D02*
X180410180Y-42719842D01*
X180410180Y-42719842D02*
X180448276Y-42815080D01*
X180448276Y-42815080D02*
X180448276Y-42957937D01*
X180448276Y-42957937D02*
X180410180Y-43053175D01*
X180410180Y-43053175D02*
X180372085Y-43100794D01*
X180372085Y-43100794D02*
X180295895Y-43148413D01*
X180295895Y-43148413D02*
X179991133Y-43148413D01*
X181210180Y-43624604D02*
X180753037Y-43624604D01*
X180981609Y-43624604D02*
X180981609Y-42624604D01*
X180981609Y-42624604D02*
X180905418Y-42767461D01*
X180905418Y-42767461D02*
X180829228Y-42862699D01*
X180829228Y-42862699D02*
X180753037Y-42910318D01*
X181895895Y-42957937D02*
X181895895Y-43624604D01*
X181705419Y-42576985D02*
X181514942Y-43291270D01*
X181514942Y-43291270D02*
X182010181Y-43291270D01*
D12*
X194927142Y-36134819D02*
X194593809Y-35658628D01*
X194355714Y-36134819D02*
X194355714Y-35134819D01*
X194355714Y-35134819D02*
X194736666Y-35134819D01*
X194736666Y-35134819D02*
X194831904Y-35182438D01*
X194831904Y-35182438D02*
X194879523Y-35230057D01*
X194879523Y-35230057D02*
X194927142Y-35325295D01*
X194927142Y-35325295D02*
X194927142Y-35468152D01*
X194927142Y-35468152D02*
X194879523Y-35563390D01*
X194879523Y-35563390D02*
X194831904Y-35611009D01*
X194831904Y-35611009D02*
X194736666Y-35658628D01*
X194736666Y-35658628D02*
X194355714Y-35658628D01*
X195308095Y-35230057D02*
X195355714Y-35182438D01*
X195355714Y-35182438D02*
X195450952Y-35134819D01*
X195450952Y-35134819D02*
X195689047Y-35134819D01*
X195689047Y-35134819D02*
X195784285Y-35182438D01*
X195784285Y-35182438D02*
X195831904Y-35230057D01*
X195831904Y-35230057D02*
X195879523Y-35325295D01*
X195879523Y-35325295D02*
X195879523Y-35420533D01*
X195879523Y-35420533D02*
X195831904Y-35563390D01*
X195831904Y-35563390D02*
X195260476Y-36134819D01*
X195260476Y-36134819D02*
X195879523Y-36134819D01*
X196260476Y-35230057D02*
X196308095Y-35182438D01*
X196308095Y-35182438D02*
X196403333Y-35134819D01*
X196403333Y-35134819D02*
X196641428Y-35134819D01*
X196641428Y-35134819D02*
X196736666Y-35182438D01*
X196736666Y-35182438D02*
X196784285Y-35230057D01*
X196784285Y-35230057D02*
X196831904Y-35325295D01*
X196831904Y-35325295D02*
X196831904Y-35420533D01*
X196831904Y-35420533D02*
X196784285Y-35563390D01*
X196784285Y-35563390D02*
X196212857Y-36134819D01*
X196212857Y-36134819D02*
X196831904Y-36134819D01*
D11*
X111906980Y-76838094D02*
X111954600Y-76876190D01*
X111954600Y-76876190D02*
X112002219Y-76990475D01*
X112002219Y-76990475D02*
X112002219Y-77066666D01*
X112002219Y-77066666D02*
X111954600Y-77180952D01*
X111954600Y-77180952D02*
X111859361Y-77257142D01*
X111859361Y-77257142D02*
X111764123Y-77295237D01*
X111764123Y-77295237D02*
X111573647Y-77333333D01*
X111573647Y-77333333D02*
X111430790Y-77333333D01*
X111430790Y-77333333D02*
X111240314Y-77295237D01*
X111240314Y-77295237D02*
X111145076Y-77257142D01*
X111145076Y-77257142D02*
X111049838Y-77180952D01*
X111049838Y-77180952D02*
X111002219Y-77066666D01*
X111002219Y-77066666D02*
X111002219Y-76990475D01*
X111002219Y-76990475D02*
X111049838Y-76876190D01*
X111049838Y-76876190D02*
X111097457Y-76838094D01*
X111002219Y-76342856D02*
X111002219Y-76190475D01*
X111002219Y-76190475D02*
X111049838Y-76114285D01*
X111049838Y-76114285D02*
X111145076Y-76038094D01*
X111145076Y-76038094D02*
X111335552Y-75999999D01*
X111335552Y-75999999D02*
X111668885Y-75999999D01*
X111668885Y-75999999D02*
X111859361Y-76038094D01*
X111859361Y-76038094D02*
X111954600Y-76114285D01*
X111954600Y-76114285D02*
X112002219Y-76190475D01*
X112002219Y-76190475D02*
X112002219Y-76342856D01*
X112002219Y-76342856D02*
X111954600Y-76419047D01*
X111954600Y-76419047D02*
X111859361Y-76495237D01*
X111859361Y-76495237D02*
X111668885Y-76533333D01*
X111668885Y-76533333D02*
X111335552Y-76533333D01*
X111335552Y-76533333D02*
X111145076Y-76495237D01*
X111145076Y-76495237D02*
X111049838Y-76419047D01*
X111049838Y-76419047D02*
X111002219Y-76342856D01*
X111716504Y-75695238D02*
X111716504Y-75314285D01*
X112002219Y-75771428D02*
X111002219Y-75504761D01*
X111002219Y-75504761D02*
X112002219Y-75238095D01*
X112002219Y-74514285D02*
X111526028Y-74780952D01*
X112002219Y-74971428D02*
X111002219Y-74971428D01*
X111002219Y-74971428D02*
X111002219Y-74666666D01*
X111002219Y-74666666D02*
X111049838Y-74590476D01*
X111049838Y-74590476D02*
X111097457Y-74552381D01*
X111097457Y-74552381D02*
X111192695Y-74514285D01*
X111192695Y-74514285D02*
X111335552Y-74514285D01*
X111335552Y-74514285D02*
X111430790Y-74552381D01*
X111430790Y-74552381D02*
X111478409Y-74590476D01*
X111478409Y-74590476D02*
X111526028Y-74666666D01*
X111526028Y-74666666D02*
X111526028Y-74971428D01*
X111954600Y-74209524D02*
X112002219Y-74095238D01*
X112002219Y-74095238D02*
X112002219Y-73904762D01*
X112002219Y-73904762D02*
X111954600Y-73828571D01*
X111954600Y-73828571D02*
X111906980Y-73790476D01*
X111906980Y-73790476D02*
X111811742Y-73752381D01*
X111811742Y-73752381D02*
X111716504Y-73752381D01*
X111716504Y-73752381D02*
X111621266Y-73790476D01*
X111621266Y-73790476D02*
X111573647Y-73828571D01*
X111573647Y-73828571D02*
X111526028Y-73904762D01*
X111526028Y-73904762D02*
X111478409Y-74057143D01*
X111478409Y-74057143D02*
X111430790Y-74133333D01*
X111430790Y-74133333D02*
X111383171Y-74171428D01*
X111383171Y-74171428D02*
X111287933Y-74209524D01*
X111287933Y-74209524D02*
X111192695Y-74209524D01*
X111192695Y-74209524D02*
X111097457Y-74171428D01*
X111097457Y-74171428D02*
X111049838Y-74133333D01*
X111049838Y-74133333D02*
X111002219Y-74057143D01*
X111002219Y-74057143D02*
X111002219Y-73866666D01*
X111002219Y-73866666D02*
X111049838Y-73752381D01*
X111478409Y-73409523D02*
X111478409Y-73142857D01*
X112002219Y-73028571D02*
X112002219Y-73409523D01*
X112002219Y-73409523D02*
X111002219Y-73409523D01*
X111002219Y-73409523D02*
X111002219Y-73028571D01*
X112002219Y-72266666D02*
X112002219Y-72723809D01*
X112002219Y-72495237D02*
X111002219Y-72495237D01*
X111002219Y-72495237D02*
X111145076Y-72571428D01*
X111145076Y-72571428D02*
X111240314Y-72647618D01*
X111240314Y-72647618D02*
X111287933Y-72723809D01*
X180265714Y-60452219D02*
X179999047Y-59976028D01*
X179808571Y-60452219D02*
X179808571Y-59452219D01*
X179808571Y-59452219D02*
X180113333Y-59452219D01*
X180113333Y-59452219D02*
X180189523Y-59499838D01*
X180189523Y-59499838D02*
X180227618Y-59547457D01*
X180227618Y-59547457D02*
X180265714Y-59642695D01*
X180265714Y-59642695D02*
X180265714Y-59785552D01*
X180265714Y-59785552D02*
X180227618Y-59880790D01*
X180227618Y-59880790D02*
X180189523Y-59928409D01*
X180189523Y-59928409D02*
X180113333Y-59976028D01*
X180113333Y-59976028D02*
X179808571Y-59976028D01*
X181027618Y-60452219D02*
X180570475Y-60452219D01*
X180799047Y-60452219D02*
X180799047Y-59452219D01*
X180799047Y-59452219D02*
X180722856Y-59595076D01*
X180722856Y-59595076D02*
X180646666Y-59690314D01*
X180646666Y-59690314D02*
X180570475Y-59737933D01*
X181484761Y-59880790D02*
X181408571Y-59833171D01*
X181408571Y-59833171D02*
X181370476Y-59785552D01*
X181370476Y-59785552D02*
X181332380Y-59690314D01*
X181332380Y-59690314D02*
X181332380Y-59642695D01*
X181332380Y-59642695D02*
X181370476Y-59547457D01*
X181370476Y-59547457D02*
X181408571Y-59499838D01*
X181408571Y-59499838D02*
X181484761Y-59452219D01*
X181484761Y-59452219D02*
X181637142Y-59452219D01*
X181637142Y-59452219D02*
X181713333Y-59499838D01*
X181713333Y-59499838D02*
X181751428Y-59547457D01*
X181751428Y-59547457D02*
X181789523Y-59642695D01*
X181789523Y-59642695D02*
X181789523Y-59690314D01*
X181789523Y-59690314D02*
X181751428Y-59785552D01*
X181751428Y-59785552D02*
X181713333Y-59833171D01*
X181713333Y-59833171D02*
X181637142Y-59880790D01*
X181637142Y-59880790D02*
X181484761Y-59880790D01*
X181484761Y-59880790D02*
X181408571Y-59928409D01*
X181408571Y-59928409D02*
X181370476Y-59976028D01*
X181370476Y-59976028D02*
X181332380Y-60071266D01*
X181332380Y-60071266D02*
X181332380Y-60261742D01*
X181332380Y-60261742D02*
X181370476Y-60356980D01*
X181370476Y-60356980D02*
X181408571Y-60404600D01*
X181408571Y-60404600D02*
X181484761Y-60452219D01*
X181484761Y-60452219D02*
X181637142Y-60452219D01*
X181637142Y-60452219D02*
X181713333Y-60404600D01*
X181713333Y-60404600D02*
X181751428Y-60356980D01*
X181751428Y-60356980D02*
X181789523Y-60261742D01*
X181789523Y-60261742D02*
X181789523Y-60071266D01*
X181789523Y-60071266D02*
X181751428Y-59976028D01*
X181751428Y-59976028D02*
X181713333Y-59928409D01*
X181713333Y-59928409D02*
X181637142Y-59880790D01*
X178209229Y-41379365D02*
X178171133Y-41426985D01*
X178171133Y-41426985D02*
X178056848Y-41474604D01*
X178056848Y-41474604D02*
X177980657Y-41474604D01*
X177980657Y-41474604D02*
X177866371Y-41426985D01*
X177866371Y-41426985D02*
X177790181Y-41331746D01*
X177790181Y-41331746D02*
X177752086Y-41236508D01*
X177752086Y-41236508D02*
X177713990Y-41046032D01*
X177713990Y-41046032D02*
X177713990Y-40903175D01*
X177713990Y-40903175D02*
X177752086Y-40712699D01*
X177752086Y-40712699D02*
X177790181Y-40617461D01*
X177790181Y-40617461D02*
X177866371Y-40522223D01*
X177866371Y-40522223D02*
X177980657Y-40474604D01*
X177980657Y-40474604D02*
X178056848Y-40474604D01*
X178056848Y-40474604D02*
X178171133Y-40522223D01*
X178171133Y-40522223D02*
X178209229Y-40569842D01*
X178894943Y-40807937D02*
X178894943Y-41474604D01*
X178704467Y-40426985D02*
X178513990Y-41141270D01*
X178513990Y-41141270D02*
X179009229Y-41141270D01*
X187382219Y-83014285D02*
X186906028Y-83280952D01*
X187382219Y-83471428D02*
X186382219Y-83471428D01*
X186382219Y-83471428D02*
X186382219Y-83166666D01*
X186382219Y-83166666D02*
X186429838Y-83090476D01*
X186429838Y-83090476D02*
X186477457Y-83052381D01*
X186477457Y-83052381D02*
X186572695Y-83014285D01*
X186572695Y-83014285D02*
X186715552Y-83014285D01*
X186715552Y-83014285D02*
X186810790Y-83052381D01*
X186810790Y-83052381D02*
X186858409Y-83090476D01*
X186858409Y-83090476D02*
X186906028Y-83166666D01*
X186906028Y-83166666D02*
X186906028Y-83471428D01*
X187382219Y-82252381D02*
X187382219Y-82709524D01*
X187382219Y-82480952D02*
X186382219Y-82480952D01*
X186382219Y-82480952D02*
X186525076Y-82557143D01*
X186525076Y-82557143D02*
X186620314Y-82633333D01*
X186620314Y-82633333D02*
X186667933Y-82709524D01*
X187382219Y-81871428D02*
X187382219Y-81719047D01*
X187382219Y-81719047D02*
X187334600Y-81642857D01*
X187334600Y-81642857D02*
X187286980Y-81604761D01*
X187286980Y-81604761D02*
X187144123Y-81528571D01*
X187144123Y-81528571D02*
X186953647Y-81490476D01*
X186953647Y-81490476D02*
X186572695Y-81490476D01*
X186572695Y-81490476D02*
X186477457Y-81528571D01*
X186477457Y-81528571D02*
X186429838Y-81566666D01*
X186429838Y-81566666D02*
X186382219Y-81642857D01*
X186382219Y-81642857D02*
X186382219Y-81795238D01*
X186382219Y-81795238D02*
X186429838Y-81871428D01*
X186429838Y-81871428D02*
X186477457Y-81909523D01*
X186477457Y-81909523D02*
X186572695Y-81947619D01*
X186572695Y-81947619D02*
X186810790Y-81947619D01*
X186810790Y-81947619D02*
X186906028Y-81909523D01*
X186906028Y-81909523D02*
X186953647Y-81871428D01*
X186953647Y-81871428D02*
X187001266Y-81795238D01*
X187001266Y-81795238D02*
X187001266Y-81642857D01*
X187001266Y-81642857D02*
X186953647Y-81566666D01*
X186953647Y-81566666D02*
X186906028Y-81528571D01*
X186906028Y-81528571D02*
X186810790Y-81490476D01*
%TO.C,R11*%
D13*
X172802562Y-53072385D02*
X173572562Y-53072385D01*
X180882562Y-53072385D02*
X180112562Y-53072385D01*
X173572562Y-51702385D02*
X180112562Y-51702385D01*
X180112562Y-54442385D01*
X173572562Y-54442385D01*
X173572562Y-51702385D01*
%TO.C,R13*%
X135000000Y-74040000D02*
X135000000Y-74810000D01*
X135000000Y-82120000D02*
X135000000Y-81350000D01*
X133630000Y-74810000D02*
X136370000Y-74810000D01*
X136370000Y-81350000D01*
X133630000Y-81350000D01*
X133630000Y-74810000D01*
%TO.C,D2*%
X123530000Y-34280000D02*
X126470000Y-34280000D01*
X123530000Y-34400000D02*
X126470000Y-34400000D01*
X123530000Y-34520000D02*
X126470000Y-34520000D01*
X125000000Y-28840000D02*
X125000000Y-29860000D01*
X125000000Y-36320000D02*
X125000000Y-35300000D01*
X123530000Y-29860000D02*
X126470000Y-29860000D01*
X126470000Y-35300000D01*
X123530000Y-35300000D01*
X123530000Y-29860000D01*
%TO.C,FINE1*%
X141300000Y-76450000D02*
X141300000Y-87360000D01*
X141300000Y-87360000D02*
X158420000Y-87360000D01*
X158420000Y-76450000D02*
X158420000Y-87360000D01*
X158420000Y-76450000D02*
G75*
G02*
X141300000Y-76450000I-8560000J0D01*
G01*
X141300000Y-76450000D02*
G75*
G02*
X158420000Y-76450000I8560000J0D01*
G01*
%TO.C,R15*%
X185842562Y-47332385D02*
X185842562Y-48102385D01*
X185842562Y-55412385D02*
X185842562Y-54642385D01*
X184472562Y-48102385D02*
X187212562Y-48102385D01*
X187212562Y-54642385D01*
X184472562Y-54642385D01*
X184472562Y-48102385D01*
%TO.C,CV_IN1*%
D11*
X221400000Y-50100000D02*
X222300000Y-50100000D01*
X221400000Y-60500000D02*
X221400000Y-50100000D01*
X221400000Y-60500000D02*
X222300000Y-60500000D01*
X225100000Y-60500000D02*
X226300000Y-60500000D01*
X225200000Y-50100000D02*
X226300000Y-50100000D01*
X228900000Y-50100000D02*
X229600000Y-50100000D01*
X228900000Y-60500000D02*
X229600000Y-60500000D01*
%TO.C,R5*%
D13*
X136722562Y-55072385D02*
X137492562Y-55072385D01*
X144802562Y-55072385D02*
X144032562Y-55072385D01*
X137492562Y-53702385D02*
X144032562Y-53702385D01*
X144032562Y-56442385D01*
X137492562Y-56442385D01*
X137492562Y-53702385D01*
%TO.C,C2*%
X158322562Y-31152385D02*
X163562562Y-31152385D01*
X158322562Y-38592385D02*
X158322562Y-31152385D01*
X163562562Y-31152385D02*
X163562562Y-38592385D01*
X163562562Y-38592385D02*
X158322562Y-38592385D01*
%TO.C,R20*%
X125000000Y-42040000D02*
X125000000Y-42810000D01*
X125000000Y-50120000D02*
X125000000Y-49350000D01*
X123630000Y-42810000D02*
X126370000Y-42810000D01*
X126370000Y-49350000D01*
X123630000Y-49350000D01*
X123630000Y-42810000D01*
%TO.C,TH3*%
X157697915Y-44606613D02*
X157697915Y-40766613D01*
X159537915Y-44606613D02*
X159537915Y-40766613D01*
%TO.C,PWM_IN1*%
D11*
X168900000Y-94400000D02*
X168900000Y-95300000D01*
X168900000Y-94400000D02*
X179300000Y-94400000D01*
X168900000Y-98100000D02*
X168900000Y-99300000D01*
X168900000Y-101900000D02*
X168900000Y-102600000D01*
X179300000Y-94400000D02*
X179300000Y-95300000D01*
X179300000Y-98200000D02*
X179300000Y-99300000D01*
X179300000Y-101900000D02*
X179300000Y-102600000D01*
%TO.C,C8*%
D13*
X114330000Y-47780000D02*
X119670000Y-47780000D01*
X114330000Y-48474000D02*
X114330000Y-47780000D01*
X114330000Y-51220000D02*
X114330000Y-50526000D01*
X119670000Y-47780000D02*
X119670000Y-48474000D01*
X119670000Y-50526000D02*
X119670000Y-51220000D01*
X119670000Y-51220000D02*
X114330000Y-51220000D01*
%TO.C,R7*%
X109000000Y-79960000D02*
X109000000Y-80730000D01*
X109000000Y-88040000D02*
X109000000Y-87270000D01*
X107630000Y-80730000D02*
X110370000Y-80730000D01*
X110370000Y-87270000D01*
X107630000Y-87270000D01*
X107630000Y-80730000D01*
%TO.C,R3*%
X205760000Y-77300000D02*
X206530000Y-77300000D01*
X213840000Y-77300000D02*
X213070000Y-77300000D01*
X206530000Y-75930000D02*
X213070000Y-75930000D01*
X213070000Y-78670000D01*
X206530000Y-78670000D01*
X206530000Y-75930000D01*
%TO.C,PULSE_OUT1*%
D11*
X144600000Y-94515000D02*
X144600000Y-95415000D01*
X144600000Y-94515000D02*
X155000000Y-94515000D01*
X144600000Y-98215000D02*
X144600000Y-99415000D01*
X144600000Y-102015000D02*
X144600000Y-102715000D01*
X155000000Y-94515000D02*
X155000000Y-95415000D01*
X155000000Y-98315000D02*
X155000000Y-99415000D01*
X155000000Y-102015000D02*
X155000000Y-102715000D01*
%TO.C,R21*%
D13*
X108500000Y-55460000D02*
X108500000Y-56230000D01*
X108500000Y-63540000D02*
X108500000Y-62770000D01*
X107130000Y-56230000D02*
X109870000Y-56230000D01*
X109870000Y-62770000D01*
X107130000Y-62770000D01*
X107130000Y-56230000D01*
%TO.C,J1*%
X105760000Y-26080000D02*
X121240000Y-26080000D01*
X105760000Y-28200000D02*
X121240000Y-28200000D01*
X105760000Y-34000000D02*
X121240000Y-34000000D01*
X105760000Y-36200000D02*
X121240000Y-36200000D01*
X105760000Y-36920000D02*
X105760000Y-26080000D01*
X107170000Y-26450000D02*
X109670000Y-26450000D01*
X107170000Y-26950000D02*
X107170000Y-26450000D01*
X108120000Y-36920000D02*
X105760000Y-36920000D01*
X109670000Y-26450000D02*
X109670000Y-26950000D01*
X109670000Y-26950000D02*
X107170000Y-26950000D01*
X112250000Y-26450000D02*
X114750000Y-26450000D01*
X112250000Y-26950000D02*
X112250000Y-26450000D01*
X114750000Y-26450000D02*
X114750000Y-26950000D01*
X114750000Y-26950000D02*
X112250000Y-26950000D01*
X117330000Y-26450000D02*
X119830000Y-26450000D01*
X117330000Y-26950000D02*
X117330000Y-26450000D01*
X119830000Y-26450000D02*
X119830000Y-26950000D01*
X119830000Y-26950000D02*
X117330000Y-26950000D01*
X121240000Y-26080000D02*
X121240000Y-36920000D01*
X121240000Y-36920000D02*
X108720000Y-36920000D01*
X108420000Y-36920000D02*
X108860000Y-37530000D01*
X107980000Y-37530000D01*
X108420000Y-36920000D01*
G36*
X108860000Y-37530000D02*
G01*
X107980000Y-37530000D01*
X108420000Y-36920000D01*
X108860000Y-37530000D01*
G37*
%TO.C,C3*%
X146422562Y-31902385D02*
X147116562Y-31902385D01*
X146422562Y-37242385D02*
X146422562Y-31902385D01*
X147116562Y-37242385D02*
X146422562Y-37242385D01*
X149168562Y-31902385D02*
X149862562Y-31902385D01*
X149862562Y-31902385D02*
X149862562Y-37242385D01*
X149862562Y-37242385D02*
X149168562Y-37242385D01*
%TO.C,R2*%
X205680000Y-69300000D02*
X206450000Y-69300000D01*
X213760000Y-69300000D02*
X212990000Y-69300000D01*
X206450000Y-67930000D02*
X212990000Y-67930000D01*
X212990000Y-70670000D01*
X206450000Y-70670000D01*
X206450000Y-67930000D01*
%TO.C,R12*%
X159382562Y-58072385D02*
X160152562Y-58072385D01*
X167462562Y-58072385D02*
X166692562Y-58072385D01*
X160152562Y-56702385D02*
X166692562Y-56702385D01*
X166692562Y-59442385D01*
X160152562Y-59442385D01*
X160152562Y-56702385D01*
%TO.C,Q2*%
X152872562Y-48162385D02*
X156472562Y-48162385D01*
X152834084Y-48150863D02*
G75*
G02*
X154672562Y-43712384I1838478J1838478D01*
G01*
X154672562Y-43712385D02*
G75*
G02*
X156511040Y-48150863I0J-2600000D01*
G01*
%TO.C,ADJ_TUNE1*%
X164535000Y-61940000D02*
X171465000Y-61940000D01*
X164535000Y-65313000D02*
X164535000Y-61940000D01*
X164535000Y-66660000D02*
X164535000Y-65747000D01*
X171465000Y-61940000D02*
X171465000Y-65313000D01*
X171465000Y-65747000D02*
X171465000Y-66660000D01*
X171465000Y-66660000D02*
X164535000Y-66660000D01*
%TO.C,R17*%
X189240000Y-91275000D02*
X189240000Y-92045000D01*
X189240000Y-99355000D02*
X189240000Y-98585000D01*
X187870000Y-92045000D02*
X190610000Y-92045000D01*
X190610000Y-98585000D01*
X187870000Y-98585000D01*
X187870000Y-92045000D01*
%TO.C,D1*%
X132142562Y-29502385D02*
X132142562Y-30152385D01*
X132142562Y-35042385D02*
X132142562Y-34392385D01*
X133262562Y-30752385D02*
X131022562Y-30752385D01*
X133262562Y-30872385D02*
X131022562Y-30872385D01*
X133262562Y-30992385D02*
X131022562Y-30992385D01*
X131022562Y-30152385D02*
X133262562Y-30152385D01*
X133262562Y-34392385D01*
X131022562Y-34392385D01*
X131022562Y-30152385D01*
%TO.C,C6*%
X122620000Y-42000000D02*
G75*
G02*
X117380000Y-42000000I-2620000J0D01*
G01*
X117380000Y-42000000D02*
G75*
G02*
X122620000Y-42000000I2620000J0D01*
G01*
%TO.C,SAW_OUT1*%
D11*
X116740000Y-94515000D02*
X116740000Y-95415000D01*
X116740000Y-94515000D02*
X127140000Y-94515000D01*
X116740000Y-98215000D02*
X116740000Y-99415000D01*
X116740000Y-102015000D02*
X116740000Y-102715000D01*
X127140000Y-94515000D02*
X127140000Y-95415000D01*
X127140000Y-98315000D02*
X127140000Y-99415000D01*
X127140000Y-102015000D02*
X127140000Y-102715000D01*
%TO.C,R4*%
D13*
X205840000Y-41600000D02*
X206610000Y-41600000D01*
X213920000Y-41600000D02*
X213150000Y-41600000D01*
X206610000Y-40230000D02*
X213150000Y-40230000D01*
X213150000Y-42970000D01*
X206610000Y-42970000D01*
X206610000Y-40230000D01*
%TO.C,R10*%
X185742562Y-30912385D02*
X185742562Y-31682385D01*
X185742562Y-38992385D02*
X185742562Y-38222385D01*
X184372562Y-31682385D02*
X187112562Y-31682385D01*
X187112562Y-38222385D01*
X184372562Y-38222385D01*
X184372562Y-31682385D01*
%TO.C,D4*%
X196785000Y-29105000D02*
X196785000Y-32195000D01*
X196785000Y-29105170D02*
G75*
G02*
X202335000Y-30650000I2560000J-1544830D01*
G01*
X202335000Y-30650000D02*
G75*
G02*
X196785000Y-32194830I-2990000J0D01*
G01*
X201845000Y-30650000D02*
G75*
G02*
X196845000Y-30650000I-2500000J0D01*
G01*
X196845000Y-30650000D02*
G75*
G02*
X201845000Y-30650000I2500000J0D01*
G01*
%TO.C,U2*%
X166502562Y-31662385D02*
X166502562Y-49562385D01*
X166502562Y-49562385D02*
X171802562Y-49562385D01*
X168152562Y-31662385D02*
X166502562Y-31662385D01*
X171802562Y-31662385D02*
X170152562Y-31662385D01*
X171802562Y-49562385D02*
X171802562Y-31662385D01*
X164012562Y-31602385D02*
X174292562Y-31602385D01*
X174292562Y-49622385D01*
X164012562Y-49622385D01*
X164012562Y-31602385D01*
X170152562Y-31662385D02*
G75*
G02*
X168152562Y-31662385I-1000000J0D01*
G01*
%TO.C,U1*%
X137882562Y-31542385D02*
X137882562Y-49442385D01*
X137882562Y-49442385D02*
X143182562Y-49442385D01*
X139532562Y-31542385D02*
X137882562Y-31542385D01*
X143182562Y-31542385D02*
X141532562Y-31542385D01*
X143182562Y-49442385D02*
X143182562Y-31542385D01*
X135392562Y-31482385D02*
X145672562Y-31482385D01*
X145672562Y-49502385D01*
X135392562Y-49502385D01*
X135392562Y-31482385D01*
X141532562Y-31542385D02*
G75*
G02*
X139532562Y-31542385I-1000000J0D01*
G01*
%TO.C,C9*%
X114330000Y-55280000D02*
X119670000Y-55280000D01*
X114330000Y-55974000D02*
X114330000Y-55280000D01*
X114330000Y-58720000D02*
X114330000Y-58026000D01*
X119670000Y-55280000D02*
X119670000Y-55974000D01*
X119670000Y-58026000D02*
X119670000Y-58720000D01*
X119670000Y-58720000D02*
X114330000Y-58720000D01*
%TO.C,R16*%
X160860000Y-88960000D02*
X160860000Y-89730000D01*
X160860000Y-97040000D02*
X160860000Y-96270000D01*
X159490000Y-89730000D02*
X162230000Y-89730000D01*
X162230000Y-96270000D01*
X159490000Y-96270000D01*
X159490000Y-89730000D01*
%TO.C,Q1*%
X156472562Y-48662385D02*
X152872562Y-48662385D01*
X154672562Y-53112385D02*
G75*
G02*
X152834084Y-48673907I0J2600000D01*
G01*
X156511040Y-48673907D02*
G75*
G02*
X154672562Y-53112386I-1838478J-1838478D01*
G01*
%TO.C,FM_IN1*%
D11*
X221400000Y-81300000D02*
X222300000Y-81300000D01*
X221400000Y-91700000D02*
X221400000Y-81300000D01*
X221400000Y-91700000D02*
X222300000Y-91700000D01*
X225100000Y-91700000D02*
X226300000Y-91700000D01*
X225200000Y-81300000D02*
X226300000Y-81300000D01*
X228900000Y-81300000D02*
X229600000Y-81300000D01*
X228900000Y-91700000D02*
X229600000Y-91700000D01*
%TO.C,PWM_CV_LVL1*%
D13*
X202165000Y-80740000D02*
X213075000Y-80740000D01*
X202165000Y-97860000D02*
X213075000Y-97860000D01*
X213075000Y-97860000D02*
X213075000Y-80740000D01*
X210725000Y-89300000D02*
G75*
G02*
X193605000Y-89300000I-8560000J0D01*
G01*
X193605000Y-89300000D02*
G75*
G02*
X210725000Y-89300000I8560000J0D01*
G01*
%TO.C,C7*%
X116620000Y-42000000D02*
G75*
G02*
X111380000Y-42000000I-2620000J0D01*
G01*
X111380000Y-42000000D02*
G75*
G02*
X116620000Y-42000000I2620000J0D01*
G01*
%TO.C,D3*%
X108500000Y-41760000D02*
X108500000Y-42780000D01*
X108500000Y-49240000D02*
X108500000Y-48220000D01*
X109970000Y-43560000D02*
X107030000Y-43560000D01*
X109970000Y-43680000D02*
X107030000Y-43680000D01*
X109970000Y-43800000D02*
X107030000Y-43800000D01*
X107030000Y-42780000D02*
X109970000Y-42780000D01*
X109970000Y-48220000D01*
X107030000Y-48220000D01*
X107030000Y-42780000D01*
%TO.C,R8*%
X135000000Y-60040000D02*
X135000000Y-60810000D01*
X135000000Y-68120000D02*
X135000000Y-67350000D01*
X133630000Y-60810000D02*
X136370000Y-60810000D01*
X136370000Y-67350000D01*
X133630000Y-67350000D01*
X133630000Y-60810000D01*
%TO.C,FM_LVL1*%
X202165000Y-46740000D02*
X213075000Y-46740000D01*
X202165000Y-63860000D02*
X213075000Y-63860000D01*
X213075000Y-63860000D02*
X213075000Y-46740000D01*
X210725000Y-55300000D02*
G75*
G02*
X193605000Y-55300000I-8560000J0D01*
G01*
X193605000Y-55300000D02*
G75*
G02*
X210725000Y-55300000I8560000J0D01*
G01*
%TO.C,C5*%
X153122562Y-31902385D02*
X153816562Y-31902385D01*
X153122562Y-37242385D02*
X153122562Y-31902385D01*
X153816562Y-37242385D02*
X153122562Y-37242385D01*
X155868562Y-31902385D02*
X156562562Y-31902385D01*
X156562562Y-31902385D02*
X156562562Y-37242385D01*
X156562562Y-37242385D02*
X155868562Y-37242385D01*
%TO.C,C1*%
X134522562Y-26152385D02*
X147762562Y-26152385D01*
X134522562Y-30392385D02*
X134522562Y-26152385D01*
X147762562Y-26152385D02*
X147762562Y-30392385D01*
X147762562Y-30392385D02*
X134522562Y-30392385D01*
%TO.C,R1*%
X150222562Y-29072385D02*
X150992562Y-29072385D01*
X158302562Y-29072385D02*
X157532562Y-29072385D01*
X150992562Y-27702385D02*
X157532562Y-27702385D01*
X157532562Y-30442385D01*
X150992562Y-30442385D01*
X150992562Y-27702385D01*
%TO.C,TH4*%
X149797925Y-44641671D02*
X149797925Y-40801671D01*
X151637925Y-44641671D02*
X151637925Y-40801671D01*
%TO.C,TH2*%
X157722562Y-51723809D02*
X157722562Y-47883809D01*
X159562562Y-51723809D02*
X159562562Y-47883809D01*
%TO.C,TH1*%
X149797925Y-47882613D02*
X149797925Y-51722613D01*
X151637925Y-47882613D02*
X151637925Y-51722613D01*
%TO.C,R6*%
X116744000Y-64600000D02*
X117514000Y-64600000D01*
X124824000Y-64600000D02*
X124054000Y-64600000D01*
X117514000Y-63230000D02*
X124054000Y-63230000D01*
X124054000Y-65970000D01*
X117514000Y-65970000D01*
X117514000Y-63230000D01*
%TO.C,PWM1*%
X166100000Y-76250000D02*
X166100000Y-87160000D01*
X166100000Y-87160000D02*
X183220000Y-87160000D01*
X183220000Y-76250000D02*
X183220000Y-87160000D01*
X183220000Y-76250000D02*
G75*
G02*
X166100000Y-76250000I-8560000J0D01*
G01*
X166100000Y-76250000D02*
G75*
G02*
X183220000Y-76250000I8560000J0D01*
G01*
%TO.C,R9*%
X134840000Y-87400000D02*
X134840000Y-88170000D01*
X134840000Y-95480000D02*
X134840000Y-94710000D01*
X133470000Y-88170000D02*
X136210000Y-88170000D01*
X136210000Y-94710000D01*
X133470000Y-94710000D01*
X133470000Y-88170000D01*
%TO.C,R14*%
X176922562Y-43172385D02*
X177692562Y-43172385D01*
X185002562Y-43172385D02*
X184232562Y-43172385D01*
X177692562Y-41802385D02*
X184232562Y-41802385D01*
X184232562Y-44542385D01*
X177692562Y-44542385D01*
X177692562Y-41802385D01*
%TO.C,R22*%
X191530000Y-38050000D02*
X192300000Y-38050000D01*
X199610000Y-38050000D02*
X198840000Y-38050000D01*
X192300000Y-36680000D02*
X198840000Y-36680000D01*
X198840000Y-39420000D01*
X192300000Y-39420000D01*
X192300000Y-36680000D01*
%TO.C,COARSE1*%
X113440000Y-76450000D02*
X113440000Y-87360000D01*
X113440000Y-87360000D02*
X130560000Y-87360000D01*
X130560000Y-76450000D02*
X130560000Y-87360000D01*
X130560000Y-76450000D02*
G75*
G02*
X113440000Y-76450000I-8560000J0D01*
G01*
X113440000Y-76450000D02*
G75*
G02*
X130560000Y-76450000I8560000J0D01*
G01*
%TO.C,R18*%
X176740000Y-60000000D02*
X177510000Y-60000000D01*
X184820000Y-60000000D02*
X184050000Y-60000000D01*
X177510000Y-58630000D02*
X184050000Y-58630000D01*
X184050000Y-61370000D01*
X177510000Y-61370000D01*
X177510000Y-58630000D01*
%TO.C,C4*%
X175672562Y-36452385D02*
X181012562Y-36452385D01*
X175672562Y-37146385D02*
X175672562Y-36452385D01*
X175672562Y-39892385D02*
X175672562Y-39198385D01*
X181012562Y-36452385D02*
X181012562Y-37146385D01*
X181012562Y-39198385D02*
X181012562Y-39892385D01*
X181012562Y-39892385D02*
X175672562Y-39892385D01*
%TO.C,R19*%
X189300000Y-78460000D02*
X189300000Y-79230000D01*
X189300000Y-86540000D02*
X189300000Y-85770000D01*
X187930000Y-79230000D02*
X190670000Y-79230000D01*
X190670000Y-85770000D01*
X187930000Y-85770000D01*
X187930000Y-79230000D01*
%TD*%
M02*
