M48
; DRILL file KiCad 10.0.3 date 2026-05-23T18:57:49
; FORMAT={-:-/ absolute / metric / decimal}
; #@! TF.CreationDate,2026-05-23T18:57:49+02:00
; #@! TF.GenerationSoftware,Kicad,Pcbnew,10.0.3
; #@! TF.FileFunction,Plated,1,2,PTH
FMAT,2
METRIC
; #@! TA.AperFunction,Plated,PTH,ViaDrill
T1C0.300
; #@! TA.AperFunction,Plated,PTH,ViaDrill
T2C0.400
; #@! TA.AperFunction,Plated,PTH,ComponentDrill
T3C0.500
; #@! TA.AperFunction,Plated,PTH,ComponentDrill
T4C0.700
; #@! TA.AperFunction,Plated,PTH,ComponentDrill
T5C0.750
; #@! TA.AperFunction,Plated,PTH,ComponentDrill
T6C0.800
; #@! TA.AperFunction,Plated,PTH,ComponentDrill
T7C0.900
; #@! TA.AperFunction,Plated,PTH,ComponentDrill
T8C1.000
; #@! TA.AperFunction,Plated,PTH,ComponentDrill
T9C1.100
; #@! TA.AperFunction,Plated,PTH,ComponentDrill
T10C1.300
%
G90
G05
T1
X151.8Y-48.3
X158.6Y-41.7
X163.7Y-60.9
X174.5Y-68.5
X177.8Y-32.9
X178.4Y-56.6
X183.3Y-50.3
X188.1Y-39.0
X202.4Y-41.6
T2
X129.4Y-36.4
T4
X150.718Y-40.182
X150.718Y-45.262
X150.718Y-47.263
X150.718Y-52.343
X158.618Y-40.147
X158.618Y-45.227
X158.643Y-47.264
X158.643Y-52.344
T5
X153.403Y-46.312
X153.403Y-50.512
X154.673Y-46.312
X154.673Y-50.512
X155.943Y-46.312
X155.943Y-50.512
X160.943Y-32.372
X160.943Y-37.372
T6
X108.5Y-54.42
X108.5Y-64.58
X109.0Y-78.92
X109.0Y-89.08
X113.0Y-42.0
X114.5Y-49.5
X114.5Y-57.0
X115.0Y-42.0
X115.704Y-64.6
X119.0Y-42.0
X119.5Y-49.5
X119.5Y-57.0
X121.0Y-42.0
X125.0Y-41.0
X125.0Y-51.16
X125.864Y-64.6
X126.89Y-100.715
X132.143Y-28.462
X132.143Y-36.082
X134.84Y-86.36
X134.84Y-96.52
X135.0Y-59.0
X135.0Y-69.16
X135.0Y-73.0
X135.0Y-83.16
X135.683Y-55.072
X136.723Y-32.872
X136.723Y-35.412
X136.723Y-37.952
X136.723Y-40.492
X136.723Y-43.032
X136.723Y-45.572
X136.723Y-48.112
X144.343Y-32.872
X144.343Y-35.412
X144.343Y-37.952
X144.343Y-40.492
X144.343Y-43.032
X144.343Y-45.572
X144.343Y-48.112
X145.843Y-55.072
X148.143Y-32.072
X148.143Y-37.072
X149.183Y-29.072
X154.75Y-100.715
X154.843Y-32.072
X154.843Y-37.072
X158.343Y-58.072
X159.343Y-29.072
X160.86Y-87.92
X160.86Y-98.08
X165.343Y-32.992
X165.343Y-35.532
X165.343Y-38.072
X165.343Y-40.612
X165.343Y-43.152
X165.343Y-45.692
X165.343Y-48.232
X165.46Y-65.53
X168.0Y-62.99
X168.503Y-58.072
X170.54Y-65.53
X171.763Y-53.072
X172.963Y-32.992
X172.963Y-35.532
X172.963Y-38.072
X172.963Y-40.612
X172.963Y-43.152
X172.963Y-45.692
X172.963Y-48.232
X175.7Y-60.0
X175.843Y-38.172
X175.883Y-43.172
X179.05Y-100.6
X180.843Y-38.172
X181.923Y-53.072
X185.743Y-29.872
X185.743Y-40.032
X185.843Y-46.292
X185.843Y-56.452
X185.86Y-60.0
X186.043Y-43.172
X189.24Y-90.235
X189.24Y-100.395
X189.3Y-77.42
X189.3Y-87.58
X190.49Y-38.05
X200.65Y-38.05
X204.64Y-69.3
X204.72Y-77.3
X204.8Y-41.6
X214.8Y-69.3
X214.88Y-77.3
X214.96Y-41.6
X227.6Y-50.35
X227.6Y-81.55
T7
X198.075Y-30.65
X200.615Y-30.65
T8
X136.143Y-28.272
X146.143Y-28.272
T9
X108.5Y-40.42
X108.5Y-50.58
X125.0Y-27.5
X125.0Y-37.66
T10
X108.42Y-31.5
X113.5Y-31.5
X117.0Y-89.0
X118.58Y-31.5
X122.0Y-89.0
X127.0Y-89.0
X144.86Y-89.0
X149.86Y-89.0
X154.86Y-89.0
X169.66Y-88.8
X174.66Y-88.8
X179.66Y-88.8
X214.715Y-50.3
X214.715Y-55.3
X214.715Y-60.3
X214.715Y-84.3
X214.715Y-89.3
X214.715Y-94.3
T3
G00X117.24Y-96.565
M15
G01X117.24Y-97.265
M16
G05
G00X117.24Y-100.365
M15
G01X117.24Y-101.065
M16
G05
G00X126.64Y-96.565
M15
G01X126.64Y-97.265
M16
G05
G00X126.64Y-100.365
M15
G01X126.64Y-101.065
M16
G05
G00X145.1Y-96.565
M15
G01X145.1Y-97.265
M16
G05
G00X145.1Y-100.365
M15
G01X145.1Y-101.065
M16
G05
G00X154.5Y-96.565
M15
G01X154.5Y-97.265
M16
G05
G00X154.5Y-100.365
M15
G01X154.5Y-101.065
M16
G05
G00X169.4Y-96.45
M15
G01X169.4Y-97.15
M16
G05
G00X169.4Y-100.25
M15
G01X169.4Y-100.95
M16
G05
G00X178.8Y-96.45
M15
G01X178.8Y-97.15
M16
G05
G00X178.8Y-100.25
M15
G01X178.8Y-100.95
M16
G05
G00X223.45Y-50.6
M15
G01X224.15Y-50.6
M16
G05
G00X223.45Y-60.0
M15
G01X224.15Y-60.0
M16
G05
G00X223.45Y-81.8
M15
G01X224.15Y-81.8
M16
G05
G00X223.45Y-91.2
M15
G01X224.15Y-91.2
M16
G05
G00X227.25Y-50.6
M15
G01X227.95Y-50.6
M16
G05
G00X227.25Y-60.0
M15
G01X227.95Y-60.0
M16
G05
G00X227.25Y-81.8
M15
G01X227.95Y-81.8
M16
G05
G00X227.25Y-91.2
M15
G01X227.95Y-91.2
M16
G05
M30
