%TF.GenerationSoftware,KiCad,Pcbnew,10.0.3*%
%TF.CreationDate,2026-05-23T19:00:02+02:00*%
%TF.ProjectId,220526_VCO_V2,32323035-3236-45f5-9643-4f5f56322e6b,rev?*%
%TF.SameCoordinates,Original*%
%TF.FileFunction,Copper,L1,Top*%
%TF.FilePolarity,Positive*%
%FSLAX46Y46*%
G04 Gerber Fmt 4.6, Leading zero omitted, Abs format (unit mm)*
G04 Created by KiCad (PCBNEW 10.0.3) date 2026-05-23 19:00:02*
%MOMM*%
%LPD*%
G01*
G04 APERTURE LIST*
G04 Aperture macros list*
%AMRoundRect*
0 Rectangle with rounded corners*
0 $1 Rounding radius*
0 $2 $3 $4 $5 $6 $7 $8 $9 X,Y pos of 4 corners*
0 Add a 4 corners polygon primitive as box body*
4,1,4,$2,$3,$4,$5,$6,$7,$8,$9,$2,$3,0*
0 Add four circle primitives for the rounded corners*
1,1,$1+$1,$2,$3*
1,1,$1+$1,$4,$5*
1,1,$1+$1,$6,$7*
1,1,$1+$1,$8,$9*
0 Add four rect primitives between the rounded corners*
20,1,$1+$1,$2,$3,$4,$5,0*
20,1,$1+$1,$4,$5,$6,$7,0*
20,1,$1+$1,$6,$7,$8,$9,0*
20,1,$1+$1,$8,$9,$2,$3,0*%
G04 Aperture macros list end*
%TA.AperFunction,ComponentPad*%
%ADD10C,1.600000*%
%TD*%
%TA.AperFunction,ComponentPad*%
%ADD11RoundRect,0.249999X0.850001X-0.850001X0.850001X0.850001X-0.850001X0.850001X-0.850001X-0.850001X0*%
%TD*%
%TA.AperFunction,ComponentPad*%
%ADD12C,2.200000*%
%TD*%
%TA.AperFunction,ComponentPad*%
%ADD13C,2.340000*%
%TD*%
%TA.AperFunction,ComponentPad*%
%ADD14RoundRect,0.190500X0.444500X-1.079500X0.444500X1.079500X-0.444500X1.079500X-0.444500X-1.079500X0*%
%TD*%
%TA.AperFunction,ComponentPad*%
%ADD15RoundRect,0.550000X0.550000X-0.700000X0.550000X0.700000X-0.550000X0.700000X-0.550000X-0.700000X0*%
%TD*%
%TA.AperFunction,ComponentPad*%
%ADD16C,1.500000*%
%TD*%
%TA.AperFunction,ComponentPad*%
%ADD17C,1.400000*%
%TD*%
%TA.AperFunction,ComponentPad*%
%ADD18RoundRect,0.190500X-1.079500X-0.444500X1.079500X-0.444500X1.079500X0.444500X-1.079500X0.444500X0*%
%TD*%
%TA.AperFunction,ComponentPad*%
%ADD19RoundRect,0.550000X-0.700000X-0.550000X0.700000X-0.550000X0.700000X0.550000X-0.700000X0.550000X0*%
%TD*%
%TA.AperFunction,ComponentPad*%
%ADD20RoundRect,0.250000X-1.000000X-1.000000X1.000000X-1.000000X1.000000X1.000000X-1.000000X1.000000X0*%
%TD*%
%TA.AperFunction,ComponentPad*%
%ADD21C,2.500000*%
%TD*%
%TA.AperFunction,ComponentPad*%
%ADD22R,1.050000X1.500000*%
%TD*%
%TA.AperFunction,ComponentPad*%
%ADD23O,1.050000X1.500000*%
%TD*%
%TA.AperFunction,ComponentPad*%
%ADD24C,1.440000*%
%TD*%
%TA.AperFunction,ComponentPad*%
%ADD25RoundRect,0.250000X-0.550000X0.550000X-0.550000X-0.550000X0.550000X-0.550000X0.550000X0.550000X0*%
%TD*%
%TA.AperFunction,ComponentPad*%
%ADD26R,1.800000X1.800000*%
%TD*%
%TA.AperFunction,ComponentPad*%
%ADD27C,1.800000*%
%TD*%
%TA.AperFunction,ComponentPad*%
%ADD28RoundRect,0.250000X-0.550000X-0.550000X0.550000X-0.550000X0.550000X0.550000X-0.550000X0.550000X0*%
%TD*%
%TA.AperFunction,ComponentPad*%
%ADD29RoundRect,0.249999X-0.850001X0.850001X-0.850001X-0.850001X0.850001X-0.850001X0.850001X0.850001X0*%
%TD*%
%TA.AperFunction,ComponentPad*%
%ADD30C,2.000000*%
%TD*%
%TA.AperFunction,ViaPad*%
%ADD31C,0.800000*%
%TD*%
%TA.AperFunction,ViaPad*%
%ADD32C,0.600000*%
%TD*%
%TA.AperFunction,Conductor*%
%ADD33C,0.500000*%
%TD*%
%TA.AperFunction,Conductor*%
%ADD34C,0.200000*%
%TD*%
G04 APERTURE END LIST*
D10*
%TO.P,R11,1*%
%TO.N,GND*%
X181922562Y-53072385D03*
%TO.P,R11,2*%
%TO.N,Net-(U2B--)*%
X171762562Y-53072385D03*
%TD*%
%TO.P,R13,1*%
%TO.N,Net-(R13-Pad1)*%
X135000000Y-83160000D03*
%TO.P,R13,2*%
%TO.N,Net-(R12-Pad1)*%
X135000000Y-73000000D03*
%TD*%
D11*
%TO.P,D2,1,K_1*%
%TO.N,Net-(D2-K)*%
X125000000Y-37660000D03*
D12*
%TO.P,D2,2,A_2*%
%TO.N,/PWR_IN_POS*%
X125000000Y-27500000D03*
%TD*%
D13*
%TO.P,FINE1,1,1_1*%
%TO.N,GND*%
X154860000Y-89000000D03*
%TO.P,FINE1,2,2_2*%
%TO.N,Net-(FINE1-Pad2)*%
X149860000Y-89000000D03*
%TO.P,FINE1,3,3_3*%
%TO.N,Net-(FINE1-Pad3)*%
X144860000Y-89000000D03*
%TD*%
D10*
%TO.P,R15,1*%
%TO.N,Net-(U2D-+)*%
X185842562Y-46292385D03*
%TO.P,R15,2*%
%TO.N,GND*%
X185842562Y-56452385D03*
%TD*%
D14*
%TO.P,CV_IN1,G*%
%TO.N,GND*%
X227600000Y-50350000D03*
D15*
%TO.P,CV_IN1,S*%
X227600000Y-50600000D03*
%TO.P,CV_IN1,SN*%
%TO.N,unconnected-(CV_IN1-PadSN)*%
X227600000Y-60000000D03*
%TO.P,CV_IN1,T*%
%TO.N,Net-(CV_IN1-PadT)*%
X223800000Y-50600000D03*
%TO.P,CV_IN1,TN*%
%TO.N,unconnected-(CV_IN1-PadTN)*%
X223800000Y-60000000D03*
%TD*%
D10*
%TO.P,R5,1*%
%TO.N,Net-(FINE1-Pad2)*%
X135682562Y-55072385D03*
%TO.P,R5,2*%
%TO.N,Net-(R5-Pad2)*%
X145842562Y-55072385D03*
%TD*%
D16*
%TO.P,C2,1*%
%TO.N,Net-(U2A--)*%
X160942562Y-32372385D03*
%TO.P,C2,2*%
%TO.N,Net-(U2B-+)*%
X160942562Y-37372385D03*
%TD*%
D10*
%TO.P,R20,1*%
%TO.N,Net-(D2-K)*%
X125000000Y-41000000D03*
%TO.P,R20,2*%
%TO.N,+12V*%
X125000000Y-51160000D03*
%TD*%
D17*
%TO.P,TH3,1*%
%TO.N,Net-(Q2-B)*%
X158617915Y-45226613D03*
%TO.P,TH3,2*%
%TO.N,Net-(R5-Pad2)*%
X158617915Y-40146613D03*
%TD*%
D18*
%TO.P,PWM_IN1,G*%
%TO.N,GND*%
X179050000Y-100600000D03*
D19*
%TO.P,PWM_IN1,S*%
X178800000Y-100600000D03*
%TO.P,PWM_IN1,SN*%
%TO.N,unconnected-(PWM_IN1-PadSN)*%
X169400000Y-100600000D03*
%TO.P,PWM_IN1,T*%
%TO.N,Net-(PWM_CV_LVL1-Pad1)*%
X178800000Y-96800000D03*
%TO.P,PWM_IN1,TN*%
%TO.N,unconnected-(PWM_IN1-PadTN)*%
X169400000Y-96800000D03*
%TD*%
D10*
%TO.P,C8,1*%
%TO.N,+12V*%
X119500000Y-49500000D03*
%TO.P,C8,2*%
%TO.N,GND*%
X114500000Y-49500000D03*
%TD*%
%TO.P,R7,1*%
%TO.N,-12V*%
X109000000Y-78920000D03*
%TO.P,R7,2*%
%TO.N,Net-(COARSE1-Pad3)*%
X109000000Y-89080000D03*
%TD*%
%TO.P,R3,1*%
%TO.N,Net-(FM_IN1-PadT)*%
X214880000Y-77300000D03*
%TO.P,R3,2*%
%TO.N,Net-(R3-Pad2)*%
X204720000Y-77300000D03*
%TD*%
D18*
%TO.P,PULSE_OUT1,G*%
%TO.N,GND*%
X154750000Y-100715000D03*
D19*
%TO.P,PULSE_OUT1,S*%
X154500000Y-100715000D03*
%TO.P,PULSE_OUT1,SN*%
%TO.N,unconnected-(PULSE_OUT1-PadSN)*%
X145100000Y-100715000D03*
%TO.P,PULSE_OUT1,T*%
%TO.N,Net-(PULSE_OUT1-PadT)*%
X154500000Y-96915000D03*
%TO.P,PULSE_OUT1,TN*%
%TO.N,unconnected-(PULSE_OUT1-PadTN)*%
X145100000Y-96915000D03*
%TD*%
D10*
%TO.P,R21,1*%
%TO.N,Net-(D3-A)*%
X108500000Y-54420000D03*
%TO.P,R21,2*%
%TO.N,-12V*%
X108500000Y-64580000D03*
%TD*%
D20*
%TO.P,J1,1,Pin_1_1*%
%TO.N,/PWR_IN_NEG*%
X108420000Y-31500000D03*
D21*
%TO.P,J1,2,Pin_2_2*%
%TO.N,GND*%
X113500000Y-31500000D03*
%TO.P,J1,3,Pin_3_3*%
%TO.N,/PWR_IN_POS*%
X118580000Y-31500000D03*
%TD*%
D10*
%TO.P,C3,1*%
%TO.N,+12V*%
X148142562Y-32072385D03*
%TO.P,C3,2*%
%TO.N,GND*%
X148142562Y-37072385D03*
%TD*%
%TO.P,R2,1*%
%TO.N,Net-(Q2-B)*%
X214800000Y-69300000D03*
%TO.P,R2,2*%
%TO.N,Net-(ADJ_TUNE1-Pad3)*%
X204640000Y-69300000D03*
%TD*%
%TO.P,R12,1*%
%TO.N,Net-(R12-Pad1)*%
X168502562Y-58072385D03*
%TO.P,R12,2*%
%TO.N,Net-(U2B--)*%
X158342562Y-58072385D03*
%TD*%
D22*
%TO.P,Q2,1,C_1*%
%TO.N,-12V*%
X153402562Y-46312385D03*
D23*
%TO.P,Q2,2,B_2*%
%TO.N,Net-(Q2-B)*%
X154672562Y-46312385D03*
%TO.P,Q2,3,E_3*%
%TO.N,Net-(Q1-B)*%
X155942562Y-46312385D03*
%TD*%
D24*
%TO.P,ADJ_TUNE1,1,1_1*%
%TO.N,GND*%
X165460000Y-65530000D03*
%TO.P,ADJ_TUNE1,2,2_2*%
X168000000Y-62990000D03*
%TO.P,ADJ_TUNE1,3,3_3*%
%TO.N,Net-(ADJ_TUNE1-Pad3)*%
X170540000Y-65530000D03*
%TD*%
D10*
%TO.P,R17,1*%
%TO.N,Net-(PWM_CV_LVL1-Pad2)*%
X189240000Y-90235000D03*
%TO.P,R17,2*%
%TO.N,Net-(U2C--)*%
X189240000Y-100395000D03*
%TD*%
D25*
%TO.P,D1,1,K_1*%
%TO.N,Net-(D1-K)*%
X132142562Y-28462385D03*
D10*
%TO.P,D1,2,A_2*%
%TO.N,Net-(D1-A)*%
X132142562Y-36082385D03*
%TD*%
%TO.P,C6,1*%
%TO.N,+12V*%
X121000000Y-42000000D03*
%TO.P,C6,2*%
%TO.N,GND*%
X119000000Y-42000000D03*
%TD*%
D18*
%TO.P,SAW_OUT1,G*%
%TO.N,GND*%
X126890000Y-100715000D03*
D19*
%TO.P,SAW_OUT1,S*%
X126640000Y-100715000D03*
%TO.P,SAW_OUT1,SN*%
%TO.N,unconnected-(SAW_OUT1-PadSN)*%
X117240000Y-100715000D03*
%TO.P,SAW_OUT1,T*%
%TO.N,Net-(R13-Pad1)*%
X126640000Y-96915000D03*
%TO.P,SAW_OUT1,TN*%
%TO.N,unconnected-(SAW_OUT1-PadTN)*%
X117240000Y-96915000D03*
%TD*%
D10*
%TO.P,R4,1*%
%TO.N,Net-(CV_IN1-PadT)*%
X214960000Y-41600000D03*
%TO.P,R4,2*%
%TO.N,Net-(R4-Pad2)*%
X204800000Y-41600000D03*
%TD*%
%TO.P,R10,1*%
%TO.N,GND*%
X185742562Y-29872385D03*
%TO.P,R10,2*%
%TO.N,Net-(U2B-+)*%
X185742562Y-40032385D03*
%TD*%
D26*
%TO.P,D4,1,K_1*%
%TO.N,GND*%
X198075000Y-30650000D03*
D27*
%TO.P,D4,2,A_2*%
%TO.N,Net-(D4-A)*%
X200615000Y-30650000D03*
%TD*%
D28*
%TO.P,U2,1*%
%TO.N,Net-(U2A--)*%
X165342562Y-32992385D03*
D10*
%TO.P,U2,2,-_2*%
X165342562Y-35532385D03*
%TO.P,U2,3,+_3*%
%TO.N,Net-(D1-K)*%
X165342562Y-38072385D03*
%TO.P,U2,4,V+_4*%
%TO.N,+12V*%
X165342562Y-40612385D03*
%TO.P,U2,5,+_5*%
%TO.N,Net-(U2B-+)*%
X165342562Y-43152385D03*
%TO.P,U2,6,-_6*%
%TO.N,Net-(U2B--)*%
X165342562Y-45692385D03*
%TO.P,U2,7*%
%TO.N,Net-(R12-Pad1)*%
X165342562Y-48232385D03*
%TO.P,U2,8*%
%TO.N,Net-(R14-Pad2)*%
X172962562Y-48232385D03*
%TO.P,U2,9,-_9*%
%TO.N,Net-(U2C--)*%
X172962562Y-45692385D03*
%TO.P,U2,10,+_10*%
%TO.N,Net-(U2B-+)*%
X172962562Y-43152385D03*
%TO.P,U2,11,V-_11*%
%TO.N,-12V*%
X172962562Y-40612385D03*
%TO.P,U2,12,+_12*%
%TO.N,Net-(U2D-+)*%
X172962562Y-38072385D03*
%TO.P,U2,13,-_13*%
%TO.N,Net-(U2D--)*%
X172962562Y-35532385D03*
%TO.P,U2,14*%
X172962562Y-32992385D03*
%TD*%
D28*
%TO.P,U1,1*%
%TO.N,Net-(D1-K)*%
X136722562Y-32872385D03*
D10*
%TO.P,U1,2*%
%TO.N,Net-(D1-A)*%
X136722562Y-35412385D03*
%TO.P,U1,3*%
%TO.N,GND*%
X136722562Y-37952385D03*
%TO.P,U1,4*%
%TO.N,unconnected-(U1-Pad4)*%
X136722562Y-40492385D03*
%TO.P,U1,5*%
%TO.N,GND*%
X136722562Y-43032385D03*
%TO.P,U1,6*%
%TO.N,unconnected-(U1-Pad6)*%
X136722562Y-45572385D03*
%TO.P,U1,7,VSS_7*%
%TO.N,GND*%
X136722562Y-48112385D03*
%TO.P,U1,8*%
%TO.N,unconnected-(U1-Pad8)*%
X144342562Y-48112385D03*
%TO.P,U1,9*%
%TO.N,GND*%
X144342562Y-45572385D03*
%TO.P,U1,10*%
%TO.N,unconnected-(U1-Pad10)*%
X144342562Y-43032385D03*
%TO.P,U1,11*%
%TO.N,GND*%
X144342562Y-40492385D03*
%TO.P,U1,12*%
%TO.N,unconnected-(U1-Pad12)*%
X144342562Y-37952385D03*
%TO.P,U1,13*%
%TO.N,GND*%
X144342562Y-35412385D03*
%TO.P,U1,14,VDD_14*%
%TO.N,+12V*%
X144342562Y-32872385D03*
%TD*%
%TO.P,C9,1*%
%TO.N,GND*%
X114500000Y-57000000D03*
%TO.P,C9,2*%
%TO.N,-12V*%
X119500000Y-57000000D03*
%TD*%
%TO.P,R16,1*%
%TO.N,Net-(PULSE_OUT1-PadT)*%
X160860000Y-98080000D03*
%TO.P,R16,2*%
%TO.N,Net-(U2D--)*%
X160860000Y-87920000D03*
%TD*%
D22*
%TO.P,Q1,1,C_1*%
%TO.N,Net-(D1-K)*%
X155942562Y-50512385D03*
D23*
%TO.P,Q1,2,B_2*%
%TO.N,Net-(Q1-B)*%
X154672562Y-50512385D03*
%TO.P,Q1,3,E_3*%
%TO.N,GND*%
X153402562Y-50512385D03*
%TD*%
D14*
%TO.P,FM_IN1,G*%
%TO.N,GND*%
X227600000Y-81550000D03*
D15*
%TO.P,FM_IN1,S*%
X227600000Y-81800000D03*
%TO.P,FM_IN1,SN*%
%TO.N,unconnected-(FM_IN1-PadSN)*%
X227600000Y-91200000D03*
%TO.P,FM_IN1,T*%
%TO.N,Net-(FM_IN1-PadT)*%
X223800000Y-81800000D03*
%TO.P,FM_IN1,TN*%
%TO.N,unconnected-(FM_IN1-PadTN)*%
X223800000Y-91200000D03*
%TD*%
D13*
%TO.P,PWM_CV_LVL1,1,1_1*%
%TO.N,Net-(PWM_CV_LVL1-Pad1)*%
X214715000Y-84300000D03*
%TO.P,PWM_CV_LVL1,2,2_2*%
%TO.N,Net-(PWM_CV_LVL1-Pad2)*%
X214715000Y-89300000D03*
%TO.P,PWM_CV_LVL1,3,3_3*%
X214715000Y-94300000D03*
%TD*%
D10*
%TO.P,C7,1*%
%TO.N,GND*%
X115000000Y-42000000D03*
%TO.P,C7,2*%
%TO.N,-12V*%
X113000000Y-42000000D03*
%TD*%
D29*
%TO.P,D3,1,K_1*%
%TO.N,/PWR_IN_NEG*%
X108500000Y-40420000D03*
D12*
%TO.P,D3,2,A_2*%
%TO.N,Net-(D3-A)*%
X108500000Y-50580000D03*
%TD*%
D10*
%TO.P,R8,1*%
%TO.N,Net-(COARSE1-Pad2)*%
X135000000Y-69160000D03*
%TO.P,R8,2*%
%TO.N,Net-(R8-Pad2)*%
X135000000Y-59000000D03*
%TD*%
D13*
%TO.P,FM_LVL1,1,1_1*%
%TO.N,Net-(FM_LVL1-Pad1)*%
X214715000Y-50300000D03*
%TO.P,FM_LVL1,2,2_2*%
%TO.N,Net-(Q2-B)*%
X214715000Y-55300000D03*
%TO.P,FM_LVL1,3,3_3*%
X214715000Y-60300000D03*
%TD*%
D10*
%TO.P,C5,1*%
%TO.N,+12V*%
X154842562Y-32072385D03*
%TO.P,C5,2*%
%TO.N,GND*%
X154842562Y-37072385D03*
%TD*%
D30*
%TO.P,C1,1*%
%TO.N,Net-(D1-K)*%
X136142562Y-28272385D03*
%TO.P,C1,2*%
%TO.N,GND*%
X146142562Y-28272385D03*
%TD*%
D10*
%TO.P,R1,1*%
%TO.N,+12V*%
X149182562Y-29072385D03*
%TO.P,R1,2*%
%TO.N,Net-(Q1-B)*%
X159342562Y-29072385D03*
%TD*%
D17*
%TO.P,TH4,1*%
%TO.N,Net-(Q2-B)*%
X150717925Y-45261671D03*
%TO.P,TH4,2*%
%TO.N,Net-(R8-Pad2)*%
X150717925Y-40181671D03*
%TD*%
%TO.P,TH2,1*%
%TO.N,Net-(Q2-B)*%
X158642562Y-52343809D03*
%TO.P,TH2,2*%
%TO.N,Net-(R4-Pad2)*%
X158642562Y-47263809D03*
%TD*%
%TO.P,TH1,1*%
%TO.N,Net-(FM_LVL1-Pad1)*%
X150717925Y-47262613D03*
%TO.P,TH1,2*%
%TO.N,Net-(R3-Pad2)*%
X150717925Y-52342613D03*
%TD*%
D10*
%TO.P,R6,1*%
%TO.N,-12V*%
X115704000Y-64600000D03*
%TO.P,R6,2*%
%TO.N,Net-(FINE1-Pad3)*%
X125864000Y-64600000D03*
%TD*%
D13*
%TO.P,PWM1,1,1_1*%
%TO.N,+12V*%
X179660000Y-88800000D03*
%TO.P,PWM1,2,2_2*%
%TO.N,Net-(PWM1-Pad2)*%
X174660000Y-88800000D03*
%TO.P,PWM1,3,3_3*%
%TO.N,-12V*%
X169660000Y-88800000D03*
%TD*%
D10*
%TO.P,R9,1*%
%TO.N,Net-(COARSE1-Pad1)*%
X134840000Y-96520000D03*
%TO.P,R9,2*%
%TO.N,+12V*%
X134840000Y-86360000D03*
%TD*%
%TO.P,R14,1*%
%TO.N,Net-(U2D-+)*%
X186042562Y-43172385D03*
%TO.P,R14,2*%
%TO.N,Net-(R14-Pad2)*%
X175882562Y-43172385D03*
%TD*%
%TO.P,R22,1*%
%TO.N,Net-(Q2-B)*%
X190490000Y-38050000D03*
%TO.P,R22,2*%
%TO.N,Net-(D4-A)*%
X200650000Y-38050000D03*
%TD*%
D13*
%TO.P,COARSE1,1,1_1*%
%TO.N,Net-(COARSE1-Pad1)*%
X127000000Y-89000000D03*
%TO.P,COARSE1,2,2_2*%
%TO.N,Net-(COARSE1-Pad2)*%
X122000000Y-89000000D03*
%TO.P,COARSE1,3,3_3*%
%TO.N,Net-(COARSE1-Pad3)*%
X117000000Y-89000000D03*
%TD*%
D10*
%TO.P,R18,1*%
%TO.N,GND*%
X185860000Y-60000000D03*
%TO.P,R18,2*%
%TO.N,Net-(U2C--)*%
X175700000Y-60000000D03*
%TD*%
%TO.P,C4,1*%
%TO.N,GND*%
X180842562Y-38172385D03*
%TO.P,C4,2*%
%TO.N,-12V*%
X175842562Y-38172385D03*
%TD*%
%TO.P,R19,1*%
%TO.N,Net-(PWM1-Pad2)*%
X189300000Y-87580000D03*
%TO.P,R19,2*%
%TO.N,Net-(U2C--)*%
X189300000Y-77420000D03*
%TD*%
D31*
%TO.N,GND*%
X129400000Y-36400000D03*
D32*
%TO.N,Net-(FM_LVL1-Pad1)*%
X178400000Y-56600000D03*
X151800000Y-48300000D03*
%TO.N,Net-(R12-Pad1)*%
X163700000Y-60900000D03*
%TO.N,Net-(U2D--)*%
X177800000Y-32900000D03*
X188100000Y-39000000D03*
X183300000Y-50300000D03*
X174500000Y-68500000D03*
%TO.N,Net-(R4-Pad2)*%
X202400000Y-41600000D03*
%TO.N,Net-(R5-Pad2)*%
X158600000Y-41700000D03*
%TD*%
%TO.N,GND*%
D33*
X117800000Y-35800000D02*
X113500000Y-31500000D01*
X128800000Y-35800000D02*
X117800000Y-35800000D01*
X129400000Y-36400000D02*
X128800000Y-35800000D01*
%TO.N,Net-(FM_LVL1-Pad1)*%
D34*
X210842615Y-54172385D02*
X214715000Y-50300000D01*
X180827615Y-54172385D02*
X210842615Y-54172385D01*
X178400000Y-56600000D02*
X180827615Y-54172385D01*
%TO.N,Net-(Q2-B)*%
X201270000Y-48830000D02*
X190490000Y-38050000D01*
X215323894Y-48830000D02*
X201270000Y-48830000D01*
X216185000Y-53830000D02*
X216185000Y-49691106D01*
X216185000Y-49691106D02*
X215323894Y-48830000D01*
%TO.N,Net-(FM_LVL1-Pad1)*%
X150762613Y-47262613D02*
X151800000Y-48300000D01*
X150717925Y-47262613D02*
X150762613Y-47262613D01*
%TO.N,Net-(Q2-B)*%
X214715000Y-55300000D02*
X216185000Y-53830000D01*
%TO.N,Net-(R12-Pad1)*%
X165674947Y-60900000D02*
X163700000Y-60900000D01*
X168502562Y-58072385D02*
X165674947Y-60900000D01*
%TO.N,Net-(U2D--)*%
X177707615Y-32992385D02*
X177800000Y-32900000D01*
X172962562Y-32992385D02*
X177707615Y-32992385D01*
X188100000Y-46156267D02*
X188100000Y-39000000D01*
X183956267Y-50300000D02*
X188100000Y-46156267D01*
X183300000Y-50300000D02*
X183956267Y-50300000D01*
X160860000Y-87920000D02*
X160860000Y-82140000D01*
X160860000Y-82140000D02*
X174500000Y-68500000D01*
%TO.N,Net-(R4-Pad2)*%
X204800000Y-41600000D02*
X202400000Y-41600000D01*
%TO.N,Net-(R5-Pad2)*%
X158617915Y-41682085D02*
X158600000Y-41700000D01*
X158617915Y-40146613D02*
X158617915Y-41682085D01*
%TO.N,Net-(D1-K)*%
X165157637Y-38072385D02*
X165342562Y-38072385D01*
X159892562Y-32807310D02*
X165157637Y-38072385D01*
X159892562Y-31937460D02*
X159892562Y-32807310D01*
X160442562Y-31387460D02*
X159892562Y-31937460D01*
X160442562Y-28616750D02*
X160442562Y-31387460D01*
X158886927Y-27972385D02*
X159798197Y-27972385D01*
X155886927Y-30972385D02*
X158886927Y-27972385D01*
X138622562Y-30972385D02*
X155886927Y-30972385D01*
X159798197Y-27972385D02*
X160442562Y-28616750D01*
X136722562Y-32872385D02*
X138622562Y-30972385D01*
%TO.N,Net-(R8-Pad2)*%
X134582562Y-58582562D02*
X135000000Y-59000000D01*
X143886927Y-44472385D02*
X134582562Y-53776750D01*
X134582562Y-53776750D02*
X134582562Y-58582562D01*
X150717925Y-40181671D02*
X146427211Y-44472385D01*
X146427211Y-44472385D02*
X143886927Y-44472385D01*
%TO.N,Net-(D1-K)*%
X160507637Y-36322385D02*
X163592562Y-36322385D01*
X163592562Y-36322385D02*
X165342562Y-38072385D01*
X157617915Y-39212107D02*
X160507637Y-36322385D01*
X157617915Y-48837032D02*
X157617915Y-39212107D01*
X155942562Y-50512385D02*
X157617915Y-48837032D01*
%TO.N,Net-(Q2-B)*%
X149717925Y-46261671D02*
X150717925Y-45261671D01*
X153842260Y-52343809D02*
X149717925Y-48219474D01*
X149717925Y-48219474D02*
X149717925Y-46261671D01*
X158642562Y-52343809D02*
X153842260Y-52343809D01*
X159642562Y-51343809D02*
X158642562Y-52343809D01*
X158617915Y-45226613D02*
X159642562Y-46251260D01*
X159642562Y-46251260D02*
X159642562Y-51343809D01*
X154672562Y-45707385D02*
X154226848Y-45261671D01*
X154226848Y-45261671D02*
X150717925Y-45261671D01*
X154672562Y-46312385D02*
X154672562Y-45707385D01*
%TO.N,Net-(Q1-B)*%
X155942562Y-32472385D02*
X159342562Y-29072385D01*
X155942562Y-46312385D02*
X155942562Y-32472385D01*
X154672562Y-47807385D02*
X154672562Y-50512385D01*
X155942562Y-46537385D02*
X154672562Y-47807385D01*
X155942562Y-46312385D02*
X155942562Y-46537385D01*
%TO.N,Net-(U2C--)*%
X205175635Y-78400000D02*
X190280000Y-78400000D01*
X205820000Y-68924365D02*
X205820000Y-77755635D01*
X205820000Y-77755635D02*
X205175635Y-78400000D01*
X190280000Y-78400000D02*
X189300000Y-77420000D01*
X199295635Y-62400000D02*
X205820000Y-68924365D01*
X178100000Y-62400000D02*
X199295635Y-62400000D01*
X175700000Y-60000000D02*
X178100000Y-62400000D01*
%TO.N,Net-(R3-Pad2)*%
X204720000Y-77300000D02*
X193970000Y-66550000D01*
X193970000Y-66550000D02*
X164925312Y-66550000D01*
X164925312Y-66550000D02*
X150717925Y-52342613D01*
%TO.N,Net-(ADJ_TUNE1-Pad3)*%
X200870000Y-65530000D02*
X204640000Y-69300000D01*
X170540000Y-65530000D02*
X200870000Y-65530000D01*
%TO.N,Net-(FINE1-Pad2)*%
X149860000Y-69249823D02*
X135682562Y-55072385D01*
X149860000Y-89000000D02*
X149860000Y-69249823D01*
%TO.N,Net-(FINE1-Pad3)*%
X131995635Y-64600000D02*
X125864000Y-64600000D01*
X144860000Y-77464365D02*
X131995635Y-64600000D01*
X144860000Y-89000000D02*
X144860000Y-77464365D01*
%TO.N,Net-(U2C--)*%
X175700000Y-55454188D02*
X175700000Y-60000000D01*
X171862562Y-51616750D02*
X175700000Y-55454188D01*
X171862562Y-46792385D02*
X171862562Y-51616750D01*
X172962562Y-45692385D02*
X171862562Y-46792385D01*
%TO.N,Net-(U2B-+)*%
X176338197Y-42072385D02*
X174042562Y-42072385D01*
X174042562Y-42072385D02*
X172962562Y-43152385D01*
X181658197Y-47392385D02*
X176338197Y-42072385D01*
X187142562Y-46548020D02*
X186298197Y-47392385D01*
X187142562Y-41432385D02*
X187142562Y-46548020D01*
X186298197Y-47392385D02*
X181658197Y-47392385D01*
X185742562Y-40032385D02*
X187142562Y-41432385D01*
%TO.N,Net-(U2D--)*%
X172962562Y-32992385D02*
X172962562Y-35532385D01*
%TO.N,Net-(U2B-+)*%
X165342562Y-43152385D02*
X160942562Y-38752385D01*
X160942562Y-38752385D02*
X160942562Y-37372385D01*
%TO.N,Net-(Q2-B)*%
X159252143Y-44592385D02*
X158617915Y-45226613D01*
X165500000Y-44592385D02*
X159252143Y-44592385D01*
X166442562Y-43036750D02*
X166442562Y-43649823D01*
X166442562Y-43649823D02*
X165500000Y-44592385D01*
X172506927Y-36972385D02*
X166442562Y-43036750D01*
X189412385Y-36972385D02*
X172506927Y-36972385D01*
X190490000Y-38050000D02*
X189412385Y-36972385D01*
%TO.N,Net-(R14-Pad2)*%
X175882562Y-45312385D02*
X172962562Y-48232385D01*
X175882562Y-43172385D02*
X175882562Y-45312385D01*
%TO.N,Net-(U2D-+)*%
X178062562Y-43172385D02*
X186042562Y-43172385D01*
X172962562Y-38072385D02*
X178062562Y-43172385D01*
X185842562Y-46292385D02*
X185842562Y-43372385D01*
X185842562Y-43372385D02*
X186042562Y-43172385D01*
%TO.N,Net-(U2B--)*%
X162327615Y-58072385D02*
X158342562Y-58072385D01*
X164000000Y-47034947D02*
X164000000Y-56400000D01*
X165342562Y-45692385D02*
X164000000Y-47034947D01*
X164000000Y-56400000D02*
X162327615Y-58072385D01*
X171762562Y-52112385D02*
X171762562Y-53072385D01*
X165342562Y-45692385D02*
X171762562Y-52112385D01*
%TO.N,Net-(R12-Pad1)*%
X168502562Y-51392385D02*
X165342562Y-48232385D01*
X168502562Y-58072385D02*
X168502562Y-51392385D01*
%TO.N,Net-(COARSE1-Pad2)*%
X135000000Y-71300000D02*
X135000000Y-69160000D01*
X122000000Y-84300000D02*
X135000000Y-71300000D01*
X122000000Y-89000000D02*
X122000000Y-84300000D01*
%TO.N,Net-(COARSE1-Pad3)*%
X109080000Y-89000000D02*
X109000000Y-89080000D01*
X117000000Y-89000000D02*
X109080000Y-89000000D01*
%TO.N,Net-(COARSE1-Pad1)*%
X134520000Y-96520000D02*
X134840000Y-96520000D01*
X127000000Y-89000000D02*
X134520000Y-96520000D01*
%TO.N,Net-(R13-Pad1)*%
X125530000Y-88391106D02*
X130761106Y-83160000D01*
X125530000Y-95805000D02*
X125530000Y-88391106D01*
X126640000Y-96915000D02*
X125530000Y-95805000D01*
X130761106Y-83160000D02*
X135000000Y-83160000D01*
%TO.N,Net-(PULSE_OUT1-PadT)*%
X155665000Y-98080000D02*
X154500000Y-96915000D01*
X160860000Y-98080000D02*
X155665000Y-98080000D01*
%TO.N,Net-(U2C--)*%
X173190000Y-88191106D02*
X183961106Y-77420000D01*
X183961106Y-77420000D02*
X189300000Y-77420000D01*
X173190000Y-89408894D02*
X173190000Y-88191106D01*
X174051106Y-90270000D02*
X173190000Y-89408894D01*
X179115000Y-90270000D02*
X174051106Y-90270000D01*
X189240000Y-100395000D02*
X179115000Y-90270000D01*
%TO.N,Net-(PWM1-Pad2)*%
X176679999Y-86780001D02*
X174660000Y-88800000D01*
X188500001Y-86780001D02*
X176679999Y-86780001D01*
X189300000Y-87580000D02*
X188500001Y-86780001D01*
%TO.N,Net-(PWM_CV_LVL1-Pad2)*%
X189240000Y-90235000D02*
X213780000Y-90235000D01*
X213780000Y-90235000D02*
X214715000Y-89300000D01*
%TO.N,Net-(PWM_CV_LVL1-Pad1)*%
X180300000Y-96800000D02*
X178800000Y-96800000D01*
X216185000Y-99315000D02*
X213600000Y-101900000D01*
X216185000Y-85770000D02*
X216185000Y-99315000D01*
X214715000Y-84300000D02*
X216185000Y-85770000D01*
X213600000Y-101900000D02*
X185400000Y-101900000D01*
X185400000Y-101900000D02*
X180300000Y-96800000D01*
%TO.N,Net-(PWM_CV_LVL1-Pad2)*%
X214715000Y-94300000D02*
X214715000Y-89300000D01*
%TO.N,Net-(FM_IN1-PadT)*%
X223800000Y-81800000D02*
X219380000Y-81800000D01*
X219380000Y-81800000D02*
X214880000Y-77300000D01*
%TO.N,Net-(Q2-B)*%
X214715000Y-69215000D02*
X214800000Y-69300000D01*
X214715000Y-60300000D02*
X214715000Y-69215000D01*
X214715000Y-55300000D02*
X214715000Y-60300000D01*
%TO.N,Net-(CV_IN1-PadT)*%
X223800000Y-50440000D02*
X223800000Y-50600000D01*
X214960000Y-41600000D02*
X223800000Y-50440000D01*
%TO.N,Net-(D4-A)*%
X200615000Y-38015000D02*
X200650000Y-38050000D01*
X200615000Y-30650000D02*
X200615000Y-38015000D01*
%TO.N,Net-(U2A--)*%
X165342562Y-32992385D02*
X161562562Y-32992385D01*
X161562562Y-32992385D02*
X160942562Y-32372385D01*
X165342562Y-35532385D02*
X165342562Y-32992385D01*
%TO.N,Net-(D1-A)*%
X132812562Y-35412385D02*
X132142562Y-36082385D01*
X136722562Y-35412385D02*
X132812562Y-35412385D01*
%TO.N,Net-(D1-K)*%
X136142562Y-32292385D02*
X136722562Y-32872385D01*
X136142562Y-28272385D02*
X136142562Y-32292385D01*
X132332562Y-28272385D02*
X132142562Y-28462385D01*
X136142562Y-28272385D02*
X132332562Y-28272385D01*
%TD*%
M02*
